<svg width="953" height="465" viewBox="0 0 953 465" fill="none" xmlns="http://www.w3.org/2000/svg">
<rect x="5" width="948" height="465" fill="#F6F7FB"/>
<path d="M219.218 239.152L212.834 232.576L219.218 226.072H222.626L216.29 232.504V232.696L222.626 239.152H219.218ZM232.817 241.288C231.937 241.288 231.193 241.112 230.585 240.76C229.993 240.392 229.537 239.888 229.217 239.248H229.073L228.857 241H226.673V223.72H229.217V230.632C229.505 230.152 229.961 229.728 230.585 229.36C231.209 228.992 231.953 228.808 232.817 228.808C233.809 228.808 234.697 229.048 235.481 229.528C236.265 229.992 236.881 230.688 237.329 231.616C237.793 232.544 238.025 233.688 238.025 235.048C238.025 236.408 237.793 237.552 237.329 238.48C236.881 239.408 236.265 240.112 235.481 240.592C234.697 241.056 233.809 241.288 232.817 241.288ZM232.289 238.864C233.201 238.864 233.953 238.552 234.545 237.928C235.153 237.288 235.457 236.336 235.457 235.072C235.457 233.792 235.153 232.832 234.545 232.192C233.953 231.552 233.201 231.232 232.289 231.232C231.377 231.232 230.617 231.552 230.009 232.192C229.417 232.816 229.121 233.768 229.121 235.048C229.121 236.312 229.417 237.264 230.009 237.904C230.617 238.544 231.377 238.864 232.289 238.864ZM245.503 241.288C244.063 241.288 242.967 240.848 242.215 239.968C241.479 239.072 241.111 237.776 241.111 236.08V229.096H243.655V235.768C243.655 236.744 243.863 237.512 244.279 238.072C244.711 238.616 245.367 238.888 246.247 238.888C247.127 238.888 247.863 238.592 248.455 238C249.047 237.408 249.343 236.552 249.343 235.432V229.096H251.887V241H249.679L249.463 239.224H249.343C249.023 239.8 248.527 240.288 247.855 240.688C247.183 241.088 246.399 241.288 245.503 241.288ZM262.246 241C261.078 241 260.15 240.72 259.462 240.16C258.774 239.584 258.43 238.568 258.43 237.112V231.256H255.43V229.096H257.206C258.022 229.096 258.502 228.696 258.646 227.896L259.006 225.976H260.974V229.096H265.678V231.256H260.974V237.064C260.974 237.688 261.11 238.128 261.382 238.384C261.67 238.624 262.158 238.744 262.846 238.744H265.63V241H262.246ZM276.637 241C275.469 241 274.541 240.72 273.853 240.16C273.165 239.584 272.821 238.568 272.821 237.112V231.256H269.821V229.096H271.597C272.413 229.096 272.893 228.696 273.037 227.896L273.397 225.976H275.365V229.096H280.069V231.256H275.365V237.064C275.365 237.688 275.501 238.128 275.773 238.384C276.061 238.624 276.549 238.744 277.237 238.744H280.021V241H276.637ZM289.731 241.288C288.595 241.288 287.579 241.032 286.683 240.52C285.787 240.008 285.083 239.288 284.571 238.36C284.059 237.416 283.803 236.312 283.803 235.048C283.803 233.784 284.059 232.688 284.571 231.76C285.083 230.816 285.787 230.088 286.683 229.576C287.579 229.064 288.603 228.808 289.755 228.808C290.907 228.808 291.923 229.064 292.803 229.576C293.699 230.088 294.395 230.816 294.891 231.76C295.403 232.688 295.659 233.784 295.659 235.048C295.659 236.312 295.403 237.416 294.891 238.36C294.379 239.288 293.675 240.008 292.779 240.52C291.899 241.032 290.883 241.288 289.731 241.288ZM289.731 238.864C290.339 238.864 290.899 238.728 291.411 238.456C291.923 238.184 292.331 237.768 292.635 237.208C292.955 236.632 293.115 235.912 293.115 235.048C293.115 234.168 292.955 233.448 292.635 232.888C292.331 232.328 291.923 231.912 291.411 231.64C290.915 231.368 290.363 231.232 289.755 231.232C289.147 231.232 288.587 231.368 288.075 231.64C287.563 231.912 287.147 232.328 286.827 232.888C286.523 233.448 286.371 234.168 286.371 235.048C286.371 236.36 286.699 237.328 287.355 237.952C288.027 238.56 288.819 238.864 289.731 238.864ZM298.794 241V229.096H301.002L301.218 230.872H301.338C301.658 230.296 302.154 229.808 302.826 229.408C303.498 229.008 304.274 228.808 305.154 228.808C306.61 228.808 307.706 229.248 308.442 230.128C309.178 231.008 309.546 232.304 309.546 234.016V241H307.002V234.328C307.002 233.336 306.794 232.568 306.378 232.024C305.962 231.48 305.306 231.208 304.41 231.208C303.53 231.208 302.794 231.504 302.202 232.096C301.626 232.688 301.338 233.544 301.338 234.664V241H298.794ZM327.551 241V238.792H330.455V232.096C330.455 231.568 330.199 231.304 329.687 231.304H327.791V229.096H330.647C331.303 229.096 331.839 229.288 332.255 229.672C332.671 230.04 332.879 230.56 332.879 231.232V231.52H332.999C333.175 230.624 333.551 229.952 334.127 229.504C334.719 229.04 335.575 228.808 336.695 228.808H338.543V231.496H335.951C335.007 231.496 334.279 231.824 333.767 232.48C333.255 233.136 332.999 233.92 332.999 234.832V238.792H336.695V241H327.551ZM347.294 241.288C346.158 241.288 345.142 241.032 344.246 240.52C343.35 240.008 342.646 239.288 342.134 238.36C341.622 237.416 341.366 236.312 341.366 235.048C341.366 233.784 341.622 232.688 342.134 231.76C342.646 230.816 343.35 230.088 344.246 229.576C345.142 229.064 346.166 228.808 347.318 228.808C348.47 228.808 349.486 229.064 350.366 229.576C351.262 230.088 351.958 230.816 352.454 231.76C352.966 232.688 353.222 233.784 353.222 235.048C353.222 236.312 352.966 237.416 352.454 238.36C351.942 239.288 351.238 240.008 350.342 240.52C349.462 241.032 348.446 241.288 347.294 241.288ZM347.294 238.864C347.902 238.864 348.462 238.728 348.974 238.456C349.486 238.184 349.894 237.768 350.198 237.208C350.518 236.632 350.678 235.912 350.678 235.048C350.678 234.168 350.518 233.448 350.198 232.888C349.894 232.328 349.486 231.912 348.974 231.64C348.478 231.368 347.926 231.232 347.318 231.232C346.71 231.232 346.15 231.368 345.638 231.64C345.126 231.912 344.71 232.328 344.39 232.888C344.086 233.448 343.934 234.168 343.934 235.048C343.934 236.36 344.262 237.328 344.918 237.952C345.59 238.56 346.382 238.864 347.294 238.864ZM356.116 241V238.792H360.1V226.72C360.1 226.192 359.844 225.928 359.332 225.928H356.452V223.72H359.788C360.716 223.72 361.42 223.968 361.9 224.464C362.396 224.944 362.644 225.648 362.644 226.576V238.792H366.652V241H356.116ZM376.219 241.288C375.067 241.288 374.051 241.032 373.171 240.52C372.291 239.992 371.603 239.264 371.107 238.336C370.611 237.408 370.363 236.328 370.363 235.096C370.363 233.848 370.603 232.752 371.083 231.808C371.579 230.864 372.267 230.128 373.147 229.6C374.043 229.072 375.075 228.808 376.243 228.808C377.395 228.808 378.387 229.072 379.219 229.6C380.051 230.112 380.691 230.8 381.139 231.664C381.603 232.528 381.835 233.48 381.835 234.52C381.835 234.68 381.835 234.856 381.835 235.048C381.835 235.224 381.827 235.424 381.811 235.648H372.859C372.939 236.752 373.299 237.592 373.939 238.168C374.579 238.728 375.331 239.008 376.195 239.008C376.947 239.008 377.539 238.856 377.971 238.552C378.419 238.232 378.747 237.8 378.955 237.256H381.523C381.235 238.392 380.635 239.352 379.723 240.136C378.811 240.904 377.643 241.288 376.219 241.288ZM376.219 231.016C375.435 231.016 374.739 231.256 374.131 231.736C373.523 232.2 373.131 232.856 372.955 233.704H379.291C379.227 232.904 378.915 232.256 378.355 231.76C377.795 231.264 377.083 231.016 376.219 231.016ZM384.898 230.728V228.448H396.034V230.728H384.898ZM384.898 236.752V234.472H396.034V236.752H384.898ZM399.552 231.28L401.064 224.2H404.448L401.832 231.28H399.552ZM405.168 231.28L406.68 224.2H410.064L407.448 231.28H405.168ZM419.415 241.288C418.231 241.288 417.191 241.072 416.295 240.64C415.415 240.208 414.719 239.592 414.207 238.792C413.711 237.992 413.455 237.04 413.439 235.936H416.127C416.143 236.784 416.431 237.512 416.991 238.12C417.567 238.712 418.367 239.008 419.391 239.008C420.335 239.008 421.071 238.792 421.599 238.36C422.127 237.912 422.391 237.336 422.391 236.632C422.391 236.04 422.231 235.552 421.911 235.168C421.607 234.768 421.127 234.416 420.471 234.112C419.815 233.792 418.967 233.464 417.927 233.128C416.535 232.68 415.511 232.064 414.855 231.28C414.199 230.48 413.871 229.504 413.871 228.352C413.871 227.024 414.351 225.952 415.311 225.136C416.271 224.32 417.591 223.912 419.271 223.912C420.903 223.912 422.215 224.336 423.207 225.184C424.199 226.016 424.711 227.176 424.743 228.664H422.031C422.031 228.264 421.919 227.88 421.695 227.512C421.471 227.128 421.151 226.816 420.735 226.576C420.319 226.32 419.807 226.192 419.199 226.192C418.447 226.176 417.815 226.36 417.303 226.744C416.791 227.112 416.535 227.616 416.535 228.256C416.535 229.04 416.847 229.656 417.471 230.104C418.095 230.536 419.111 230.984 420.519 231.448C421.399 231.736 422.175 232.088 422.847 232.504C423.535 232.904 424.071 233.424 424.455 234.064C424.855 234.688 425.055 235.488 425.055 236.464C425.055 237.36 424.831 238.176 424.383 238.912C423.935 239.632 423.287 240.208 422.439 240.64C421.607 241.072 420.599 241.288 419.415 241.288ZM432.582 241.288C431.142 241.288 430.046 240.848 429.294 239.968C428.558 239.072 428.19 237.776 428.19 236.08V229.096H430.734V235.768C430.734 236.744 430.942 237.512 431.358 238.072C431.79 238.616 432.446 238.888 433.326 238.888C434.206 238.888 434.942 238.592 435.534 238C436.126 237.408 436.422 236.552 436.422 235.432V229.096H438.966V241H436.758L436.542 239.224H436.422C436.102 239.8 435.606 240.288 434.934 240.688C434.262 241.088 433.478 241.288 432.582 241.288ZM448.676 241.288C447.796 241.288 447.052 241.112 446.444 240.76C445.852 240.392 445.396 239.888 445.076 239.248H444.932L444.716 241H442.532V223.72H445.076V230.632C445.364 230.152 445.82 229.728 446.444 229.36C447.068 228.992 447.812 228.808 448.676 228.808C449.668 228.808 450.556 229.048 451.34 229.528C452.124 229.992 452.74 230.688 453.188 231.616C453.652 232.544 453.884 233.688 453.884 235.048C453.884 236.408 453.652 237.552 453.188 238.48C452.74 239.408 452.124 240.112 451.34 240.592C450.556 241.056 449.668 241.288 448.676 241.288ZM448.148 238.864C449.06 238.864 449.812 238.552 450.404 237.928C451.012 237.288 451.316 236.336 451.316 235.072C451.316 233.792 451.012 232.832 450.404 232.192C449.812 231.552 449.06 231.232 448.148 231.232C447.236 231.232 446.476 231.552 445.868 232.192C445.276 232.816 444.98 233.768 444.98 235.048C444.98 236.312 445.276 237.264 445.868 237.904C446.476 238.544 447.236 238.864 448.148 238.864ZM455.819 241V229.096H457.931L458.147 230.488H458.267C458.475 229.992 458.795 229.592 459.227 229.288C459.659 228.968 460.171 228.808 460.763 228.808C461.339 228.808 461.843 228.952 462.275 229.24C462.707 229.528 463.027 229.944 463.235 230.488H463.331C463.539 230.008 463.867 229.608 464.315 229.288C464.763 228.968 465.315 228.808 465.971 228.808C466.851 228.808 467.515 229.096 467.963 229.672C468.427 230.248 468.659 231.056 468.659 232.096V241H466.211V232.6C466.211 232.12 466.107 231.744 465.899 231.472C465.707 231.184 465.395 231.04 464.963 231.04C464.531 231.04 464.171 231.208 463.883 231.544C463.611 231.88 463.475 232.352 463.475 232.96V241H461.003V232.6C461.003 232.12 460.907 231.744 460.715 231.472C460.523 231.184 460.211 231.04 459.779 231.04C459.347 231.04 458.987 231.208 458.699 231.544C458.411 231.88 458.267 232.352 458.267 232.96V241H455.819ZM476.569 227.272C476.009 227.272 475.537 227.096 475.153 226.744C474.785 226.376 474.601 225.928 474.601 225.4C474.601 224.872 474.785 224.432 475.153 224.08C475.537 223.728 476.009 223.552 476.569 223.552C477.145 223.552 477.617 223.728 477.985 224.08C478.369 224.432 478.561 224.872 478.561 225.4C478.561 225.928 478.369 226.376 477.985 226.744C477.617 227.096 477.145 227.272 476.569 227.272ZM471.793 241V238.792H475.537V232.096C475.537 231.568 475.281 231.304 474.769 231.304H472.129V229.096H475.225C476.217 229.096 476.937 229.328 477.385 229.792C477.849 230.24 478.081 230.96 478.081 231.952V238.792H481.825V241H471.793ZM492.496 241C491.328 241 490.4 240.72 489.712 240.16C489.024 239.584 488.68 238.568 488.68 237.112V231.256H485.68V229.096H487.456C488.272 229.096 488.752 228.696 488.896 227.896L489.256 225.976H491.224V229.096H495.928V231.256H491.224V237.064C491.224 237.688 491.36 238.128 491.632 238.384C491.92 238.624 492.408 238.744 493.096 238.744H495.88V241H492.496ZM500.287 231.28L501.799 224.2H505.183L502.567 231.28H500.287ZM505.903 231.28L507.415 224.2H510.799L508.183 231.28H505.903ZM515.133 239.152L521.469 232.696V232.504L515.133 226.072H518.541L524.925 232.576L518.541 239.152H515.133ZM534.54 241.288C533.356 241.288 532.316 241.072 531.42 240.64C530.54 240.208 529.844 239.592 529.332 238.792C528.836 237.992 528.58 237.04 528.564 235.936H531.252C531.268 236.784 531.556 237.512 532.116 238.12C532.692 238.712 533.492 239.008 534.516 239.008C535.46 239.008 536.196 238.792 536.724 238.36C537.252 237.912 537.516 237.336 537.516 236.632C537.516 236.04 537.356 235.552 537.036 235.168C536.732 234.768 536.252 234.416 535.596 234.112C534.94 233.792 534.092 233.464 533.052 233.128C531.66 232.68 530.636 232.064 529.98 231.28C529.324 230.48 528.996 229.504 528.996 228.352C528.996 227.024 529.476 225.952 530.436 225.136C531.396 224.32 532.716 223.912 534.396 223.912C536.028 223.912 537.34 224.336 538.332 225.184C539.324 226.016 539.836 227.176 539.868 228.664H537.156C537.156 228.264 537.044 227.88 536.82 227.512C536.596 227.128 536.276 226.816 535.86 226.576C535.444 226.32 534.932 226.192 534.324 226.192C533.572 226.176 532.94 226.36 532.428 226.744C531.916 227.112 531.66 227.616 531.66 228.256C531.66 229.04 531.972 229.656 532.596 230.104C533.22 230.536 534.236 230.984 535.644 231.448C536.524 231.736 537.3 232.088 537.972 232.504C538.66 232.904 539.196 233.424 539.58 234.064C539.98 234.688 540.18 235.488 540.18 236.464C540.18 237.36 539.956 238.176 539.508 238.912C539.06 239.632 538.412 240.208 537.564 240.64C536.732 241.072 535.724 241.288 534.54 241.288ZM548.523 227.272C547.963 227.272 547.491 227.096 547.107 226.744C546.739 226.376 546.555 225.928 546.555 225.4C546.555 224.872 546.739 224.432 547.107 224.08C547.491 223.728 547.963 223.552 548.523 223.552C549.099 223.552 549.571 223.728 549.939 224.08C550.323 224.432 550.515 224.872 550.515 225.4C550.515 225.928 550.323 226.376 549.939 226.744C549.571 227.096 549.099 227.272 548.523 227.272ZM543.747 241V238.792H547.491V232.096C547.491 231.568 547.235 231.304 546.723 231.304H544.083V229.096H547.179C548.171 229.096 548.891 229.328 549.339 229.792C549.803 230.24 550.035 230.96 550.035 231.952V238.792H553.779V241H543.747ZM562.889 237.568C562.153 237.568 561.473 237.448 560.849 237.208L560.249 237.928C560.057 238.168 560.001 238.4 560.081 238.624C560.177 238.832 560.393 238.936 560.729 238.936H563.873C565.265 238.936 566.385 239.232 567.233 239.824C568.097 240.4 568.529 241.288 568.529 242.488C568.529 243.24 568.337 243.92 567.953 244.528C567.585 245.152 566.985 245.648 566.153 246.016C565.337 246.384 564.257 246.568 562.913 246.568C561.217 246.568 559.849 246.248 558.809 245.608C557.785 244.984 557.273 244.04 557.273 242.776C557.273 242.328 557.377 241.912 557.585 241.528C557.809 241.16 558.097 240.824 558.449 240.52C558.017 240.2 557.753 239.752 557.657 239.176C557.577 238.584 557.753 238.016 558.185 237.472L559.241 236.128C558.489 235.328 558.113 234.344 558.113 233.176C558.113 232.392 558.297 231.672 558.665 231.016C559.049 230.344 559.593 229.808 560.297 229.408C561.017 229.008 561.881 228.808 562.889 228.808C563.545 228.808 564.153 228.904 564.713 229.096H569.201V230.776L567.113 230.896V231.112C567.449 231.736 567.617 232.424 567.617 233.176C567.617 233.96 567.425 234.688 567.041 235.36C566.673 236.032 566.137 236.568 565.433 236.968C564.729 237.368 563.881 237.568 562.889 237.568ZM562.889 235.528C563.593 235.528 564.169 235.32 564.617 234.904C565.081 234.488 565.313 233.912 565.313 233.176C565.313 232.472 565.081 231.912 564.617 231.496C564.169 231.08 563.593 230.872 562.889 230.872C562.169 230.872 561.577 231.08 561.113 231.496C560.665 231.912 560.441 232.472 560.441 233.176C560.441 233.912 560.665 234.488 561.113 234.904C561.577 235.32 562.169 235.528 562.889 235.528ZM559.673 242.584C559.673 243.224 559.977 243.696 560.585 244C561.209 244.304 561.985 244.456 562.913 244.456C563.905 244.456 564.689 244.288 565.265 243.952C565.841 243.616 566.129 243.144 566.129 242.536C566.129 242.024 565.921 241.616 565.505 241.312C565.089 241.024 564.385 240.88 563.393 240.88H560.585C559.977 241.36 559.673 241.928 559.673 242.584ZM572.216 241V229.096H574.424L574.64 230.872H574.76C575.08 230.296 575.576 229.808 576.248 229.408C576.92 229.008 577.696 228.808 578.576 228.808C580.032 228.808 581.128 229.248 581.864 230.128C582.6 231.008 582.968 232.304 582.968 234.016V241H580.424V234.328C580.424 233.336 580.216 232.568 579.8 232.024C579.384 231.48 578.728 231.208 577.832 231.208C576.952 231.208 576.216 231.504 575.624 232.096C575.048 232.688 574.76 233.544 574.76 234.664V241H572.216ZM606.277 241.288C605.141 241.288 604.125 241.056 603.229 240.592C602.349 240.128 601.653 239.424 601.141 238.48C600.629 237.52 600.373 236.312 600.373 234.856V224.2H602.917V235C602.917 236.28 603.221 237.272 603.829 237.976C604.437 238.664 605.269 239.008 606.325 239.008C607.381 239.008 608.213 238.664 608.821 237.976C609.429 237.272 609.733 236.28 609.733 235V224.2H612.277V234.856C612.277 236.312 612.013 237.52 611.485 238.48C610.957 239.424 610.237 240.128 609.325 240.592C608.429 241.056 607.413 241.288 606.277 241.288ZM615.172 246.28V229.096H617.38L617.572 230.92H617.716C618.036 230.328 618.516 229.832 619.156 229.432C619.812 229.016 620.588 228.808 621.484 228.808C622.412 228.808 623.26 229.048 624.028 229.528C624.796 229.992 625.404 230.688 625.852 231.616C626.316 232.528 626.548 233.672 626.548 235.048C626.548 236.408 626.308 237.552 625.828 238.48C625.364 239.408 624.732 240.112 623.932 240.592C623.132 241.056 622.236 241.288 621.244 241.288C620.364 241.288 619.628 241.112 619.036 240.76C618.444 240.408 618.004 240.008 617.716 239.56V246.28H615.172ZM620.812 238.864C621.708 238.864 622.452 238.544 623.044 237.904C623.652 237.264 623.956 236.304 623.956 235.024C623.956 233.744 623.652 232.792 623.044 232.168C622.452 231.544 621.708 231.232 620.812 231.232C619.9 231.232 619.14 231.552 618.532 232.192C617.94 232.816 617.644 233.768 617.644 235.048C617.644 236.312 617.94 237.264 618.532 237.904C619.14 238.544 619.9 238.864 620.812 238.864ZM636.546 239.152L630.162 232.576L636.546 226.072H639.954L633.618 232.504V232.696L639.954 239.152H636.546ZM644.049 243.16L652.353 222.76H654.945L646.617 243.16H644.049ZM664.536 241.288C663.656 241.288 662.912 241.112 662.304 240.76C661.712 240.392 661.256 239.888 660.936 239.248H660.792L660.576 241H658.392V223.72H660.936V230.632C661.224 230.152 661.68 229.728 662.304 229.36C662.928 228.992 663.672 228.808 664.536 228.808C665.528 228.808 666.416 229.048 667.2 229.528C667.984 229.992 668.6 230.688 669.048 231.616C669.512 232.544 669.744 233.688 669.744 235.048C669.744 236.408 669.512 237.552 669.048 238.48C668.6 239.408 667.984 240.112 667.2 240.592C666.416 241.056 665.528 241.288 664.536 241.288ZM664.008 238.864C664.92 238.864 665.672 238.552 666.264 237.928C666.872 237.288 667.176 236.336 667.176 235.072C667.176 233.792 666.872 232.832 666.264 232.192C665.672 231.552 664.92 231.232 664.008 231.232C663.096 231.232 662.336 231.552 661.728 232.192C661.136 232.816 660.84 233.768 660.84 235.048C660.84 236.312 661.136 237.264 661.728 237.904C662.336 238.544 663.096 238.864 664.008 238.864ZM677.222 241.288C675.782 241.288 674.686 240.848 673.934 239.968C673.198 239.072 672.83 237.776 672.83 236.08V229.096H675.374V235.768C675.374 236.744 675.582 237.512 675.998 238.072C676.43 238.616 677.086 238.888 677.966 238.888C678.846 238.888 679.582 238.592 680.174 238C680.766 237.408 681.062 236.552 681.062 235.432V229.096H683.606V241H681.398L681.182 239.224H681.062C680.742 239.8 680.246 240.288 679.574 240.688C678.902 241.088 678.118 241.288 677.222 241.288ZM693.965 241C692.797 241 691.869 240.72 691.181 240.16C690.493 239.584 690.149 238.568 690.149 237.112V231.256H687.149V229.096H688.925C689.741 229.096 690.221 228.696 690.365 227.896L690.725 225.976H692.693V229.096H697.397V231.256H692.693V237.064C692.693 237.688 692.829 238.128 693.101 238.384C693.389 238.624 693.877 238.744 694.565 238.744H697.349V241H693.965ZM708.355 241C707.187 241 706.259 240.72 705.571 240.16C704.883 239.584 704.539 238.568 704.539 237.112V231.256H701.539V229.096H703.315C704.131 229.096 704.611 228.696 704.755 227.896L705.115 225.976H707.083V229.096H711.787V231.256H707.083V237.064C707.083 237.688 707.219 238.128 707.491 238.384C707.779 238.624 708.267 238.744 708.955 238.744H711.739V241H708.355ZM721.45 241.288C720.314 241.288 719.298 241.032 718.402 240.52C717.506 240.008 716.802 239.288 716.29 238.36C715.778 237.416 715.522 236.312 715.522 235.048C715.522 233.784 715.778 232.688 716.29 231.76C716.802 230.816 717.506 230.088 718.402 229.576C719.298 229.064 720.322 228.808 721.474 228.808C722.626 228.808 723.642 229.064 724.522 229.576C725.418 230.088 726.114 230.816 726.61 231.76C727.122 232.688 727.378 233.784 727.378 235.048C727.378 236.312 727.122 237.416 726.61 238.36C726.098 239.288 725.394 240.008 724.498 240.52C723.618 241.032 722.602 241.288 721.45 241.288ZM721.45 238.864C722.058 238.864 722.618 238.728 723.13 238.456C723.642 238.184 724.05 237.768 724.354 237.208C724.674 236.632 724.834 235.912 724.834 235.048C724.834 234.168 724.674 233.448 724.354 232.888C724.05 232.328 723.642 231.912 723.13 231.64C722.634 231.368 722.082 231.232 721.474 231.232C720.866 231.232 720.306 231.368 719.794 231.64C719.282 231.912 718.866 232.328 718.546 232.888C718.242 233.448 718.09 234.168 718.09 235.048C718.09 236.36 718.418 237.328 719.074 237.952C719.746 238.56 720.538 238.864 721.45 238.864ZM730.513 241V229.096H732.721L732.937 230.872H733.057C733.377 230.296 733.873 229.808 734.545 229.408C735.217 229.008 735.993 228.808 736.873 228.808C738.329 228.808 739.425 229.248 740.161 230.128C740.897 231.008 741.265 232.304 741.265 234.016V241H738.721V234.328C738.721 233.336 738.513 232.568 738.097 232.024C737.681 231.48 737.025 231.208 736.129 231.208C735.249 231.208 734.513 231.504 733.921 232.096C733.345 232.688 733.057 233.544 733.057 234.664V241H730.513ZM745.383 239.152L751.719 232.696V232.504L745.383 226.072H748.791L755.175 232.576L748.791 239.152H745.383Z" fill="black"/>
<line x1="226" y1="251" x2="311" y2="251" stroke="#FF9204" stroke-width="6"/>
<path d="M260.379 324.213C261.55 325.385 263.45 325.385 264.621 324.213L283.713 305.121C284.885 303.95 284.885 302.05 283.713 300.879C282.542 299.707 280.642 299.707 279.471 300.879L262.5 317.849L245.529 300.879C244.358 299.707 242.458 299.707 241.287 300.879C240.115 302.05 240.115 303.95 241.287 305.121L260.379 324.213ZM262.5 253.908H259.5V322.092H262.5H265.5V253.908H262.5Z" fill="#FF9204"/>
<line x1="657" y1="251.092" x2="742" y2="251.092" stroke="#FF9204" stroke-width="6"/>
<path d="M691.379 324.305C692.55 325.476 694.45 325.476 695.621 324.305L714.713 305.213C715.885 304.041 715.885 302.142 714.713 300.97C713.542 299.799 711.642 299.799 710.471 300.97L693.5 317.941L676.529 300.97C675.358 299.799 673.458 299.799 672.287 300.97C671.115 302.142 671.115 304.041 672.287 305.213L691.379 324.305ZM693.5 254H690.5V322.184H693.5H696.5V254H693.5Z" fill="#FF9204"/>
<line x1="414" y1="251.069" x2="499" y2="251.069" stroke="#15AABF" stroke-width="6"/>
<path d="M448.379 307.121C449.55 308.293 451.45 308.293 452.621 307.121L471.713 288.029C472.885 286.858 472.885 284.958 471.713 283.787C470.542 282.615 468.642 282.615 467.471 283.787L450.5 300.757L433.529 283.787C432.358 282.615 430.458 282.615 429.287 283.787C428.115 284.958 428.115 286.858 429.287 288.029L448.379 307.121ZM450.5 254H447.5V305H450.5H453.5V254H450.5Z" fill="#15AABF"/>
<line x1="323.959" y1="215.5" x2="379.041" y2="215.5" stroke="#40C057" stroke-width="6"/>
<path d="M353.121 145.879C351.95 144.707 350.05 144.707 348.879 145.879L329.787 164.971C328.615 166.142 328.615 168.042 329.787 169.213C330.958 170.385 332.858 170.385 334.029 169.213L351 152.243L367.971 169.213C369.142 170.385 371.042 170.385 372.213 169.213C373.385 168.042 373.385 166.142 372.213 164.971L353.121 145.879ZM351 216.184H354V148H351H348V216.184H351Z" fill="#40C057"/>
<line x1="532" y1="213" x2="628.881" y2="213" stroke="#BE4BDB" stroke-width="6"/>
<path d="M581.683 143.879C580.511 142.707 578.612 142.707 577.44 143.879L558.348 162.971C557.177 164.142 557.177 166.042 558.348 167.213C559.52 168.385 561.419 168.385 562.591 167.213L579.562 150.243L596.532 167.213C597.704 168.385 599.603 168.385 600.775 167.213C601.946 166.042 601.946 164.142 600.775 162.971L581.683 143.879ZM579.562 213.7H582.562V146H579.562H576.562V213.7H579.562Z" fill="#BE4BDB"/>
<path d="M204.493 334.588V331.545H218.828V334.588H213.484V349H209.837V334.588H204.493ZM223.072 349.247C222.237 349.247 221.493 349.102 220.839 348.812C220.186 348.517 219.669 348.082 219.288 347.509C218.913 346.929 218.726 346.207 218.726 345.344C218.726 344.616 218.859 344.006 219.126 343.511C219.393 343.017 219.757 342.619 220.217 342.318C220.678 342.017 221.2 341.79 221.786 341.636C222.376 341.483 222.996 341.375 223.643 341.312C224.405 341.233 225.018 341.159 225.484 341.091C225.95 341.017 226.288 340.909 226.499 340.767C226.709 340.625 226.814 340.415 226.814 340.136V340.085C226.814 339.545 226.643 339.128 226.303 338.832C225.967 338.537 225.49 338.389 224.871 338.389C224.217 338.389 223.697 338.534 223.311 338.824C222.925 339.108 222.669 339.466 222.544 339.898L219.186 339.625C219.357 338.83 219.692 338.142 220.192 337.562C220.692 336.977 221.337 336.528 222.126 336.216C222.922 335.898 223.842 335.739 224.888 335.739C225.615 335.739 226.311 335.824 226.976 335.994C227.646 336.165 228.24 336.429 228.757 336.787C229.28 337.145 229.692 337.605 229.993 338.168C230.294 338.724 230.445 339.392 230.445 340.17V349H227.001V347.185H226.899C226.689 347.594 226.408 347.955 226.055 348.267C225.703 348.574 225.28 348.815 224.786 348.991C224.291 349.162 223.72 349.247 223.072 349.247ZM224.112 346.741C224.646 346.741 225.118 346.636 225.527 346.426C225.936 346.21 226.257 345.92 226.49 345.557C226.723 345.193 226.839 344.781 226.839 344.321V342.932C226.726 343.006 226.57 343.074 226.371 343.136C226.178 343.193 225.959 343.247 225.714 343.298C225.47 343.344 225.226 343.386 224.982 343.426C224.737 343.46 224.516 343.491 224.317 343.52C223.891 343.582 223.518 343.682 223.2 343.818C222.882 343.955 222.635 344.139 222.459 344.372C222.283 344.599 222.195 344.884 222.195 345.224C222.195 345.719 222.374 346.097 222.732 346.358C223.095 346.614 223.555 346.741 224.112 346.741ZM239.159 354.182C237.983 354.182 236.974 354.02 236.134 353.696C235.298 353.378 234.634 352.943 234.139 352.392C233.645 351.841 233.324 351.222 233.176 350.534L236.534 350.082C236.636 350.344 236.798 350.588 237.02 350.815C237.241 351.043 237.534 351.224 237.898 351.361C238.267 351.503 238.716 351.574 239.244 351.574C240.034 351.574 240.685 351.381 241.196 350.994C241.713 350.614 241.972 349.974 241.972 349.077V346.682H241.818C241.659 347.045 241.42 347.389 241.102 347.713C240.784 348.037 240.375 348.301 239.875 348.506C239.375 348.71 238.778 348.812 238.085 348.812C237.102 348.812 236.207 348.585 235.401 348.131C234.599 347.67 233.96 346.969 233.483 346.026C233.011 345.077 232.776 343.878 232.776 342.429C232.776 340.946 233.017 339.707 233.5 338.713C233.983 337.719 234.625 336.974 235.426 336.48C236.233 335.986 237.116 335.739 238.077 335.739C238.81 335.739 239.423 335.864 239.918 336.114C240.412 336.358 240.81 336.665 241.111 337.034C241.418 337.398 241.653 337.756 241.818 338.108H241.955V335.909H245.56V349.128C245.56 350.241 245.287 351.173 244.741 351.923C244.196 352.673 243.44 353.236 242.474 353.611C241.514 353.991 240.409 354.182 239.159 354.182ZM239.236 346.085C239.821 346.085 240.315 345.94 240.719 345.651C241.128 345.355 241.44 344.935 241.656 344.389C241.878 343.838 241.989 343.179 241.989 342.412C241.989 341.645 241.881 340.98 241.665 340.418C241.449 339.849 241.136 339.409 240.727 339.097C240.318 338.784 239.821 338.628 239.236 338.628C238.639 338.628 238.136 338.79 237.727 339.114C237.318 339.432 237.009 339.875 236.798 340.443C236.588 341.011 236.483 341.668 236.483 342.412C236.483 343.168 236.588 343.821 236.798 344.372C237.014 344.918 237.324 345.341 237.727 345.642C238.136 345.937 238.639 346.085 239.236 346.085ZM268.671 331.545V349H265.484L257.89 338.014H257.762V349H254.072V331.545H257.31L264.844 342.523H264.998V331.545H268.671ZM275.385 349.247C274.55 349.247 273.805 349.102 273.152 348.812C272.499 348.517 271.982 348.082 271.601 347.509C271.226 346.929 271.038 346.207 271.038 345.344C271.038 344.616 271.172 344.006 271.439 343.511C271.706 343.017 272.07 342.619 272.53 342.318C272.99 342.017 273.513 341.79 274.098 341.636C274.689 341.483 275.308 341.375 275.956 341.312C276.717 341.233 277.331 341.159 277.797 341.091C278.263 341.017 278.601 340.909 278.811 340.767C279.021 340.625 279.126 340.415 279.126 340.136V340.085C279.126 339.545 278.956 339.128 278.615 338.832C278.28 338.537 277.803 338.389 277.183 338.389C276.53 338.389 276.01 338.534 275.624 338.824C275.237 339.108 274.982 339.466 274.857 339.898L271.499 339.625C271.669 338.83 272.004 338.142 272.504 337.562C273.004 336.977 273.649 336.528 274.439 336.216C275.234 335.898 276.155 335.739 277.2 335.739C277.928 335.739 278.624 335.824 279.288 335.994C279.959 336.165 280.553 336.429 281.07 336.787C281.592 337.145 282.004 337.605 282.305 338.168C282.607 338.724 282.757 339.392 282.757 340.17V349H279.314V347.185H279.212C279.001 347.594 278.72 347.955 278.368 348.267C278.016 348.574 277.592 348.815 277.098 348.991C276.604 349.162 276.033 349.247 275.385 349.247ZM276.425 346.741C276.959 346.741 277.43 346.636 277.839 346.426C278.249 346.21 278.57 345.92 278.803 345.557C279.036 345.193 279.152 344.781 279.152 344.321V342.932C279.038 343.006 278.882 343.074 278.683 343.136C278.49 343.193 278.271 343.247 278.027 343.298C277.783 343.344 277.538 343.386 277.294 343.426C277.05 343.46 276.828 343.491 276.629 343.52C276.203 343.582 275.831 343.682 275.513 343.818C275.195 343.955 274.947 344.139 274.771 344.372C274.595 344.599 274.507 344.884 274.507 345.224C274.507 345.719 274.686 346.097 275.044 346.358C275.408 346.614 275.868 346.741 276.425 346.741ZM285.574 349V335.909H289.034V338.219H289.188C289.46 337.452 289.915 336.847 290.551 336.403C291.188 335.96 291.949 335.739 292.835 335.739C293.733 335.739 294.497 335.963 295.128 336.412C295.759 336.855 296.179 337.457 296.389 338.219H296.526C296.793 337.469 297.276 336.869 297.974 336.42C298.679 335.966 299.511 335.739 300.472 335.739C301.693 335.739 302.685 336.128 303.446 336.906C304.213 337.679 304.597 338.776 304.597 340.196V349H300.974V340.912C300.974 340.185 300.781 339.639 300.395 339.276C300.009 338.912 299.526 338.73 298.946 338.73C298.287 338.73 297.773 338.94 297.403 339.361C297.034 339.776 296.849 340.324 296.849 341.006V349H293.33V340.835C293.33 340.193 293.145 339.682 292.776 339.301C292.412 338.92 291.932 338.73 291.335 338.73C290.932 338.73 290.568 338.832 290.244 339.037C289.926 339.236 289.673 339.517 289.486 339.881C289.298 340.239 289.205 340.659 289.205 341.142V349H285.574ZM313.43 349.256C312.084 349.256 310.925 348.983 309.953 348.438C308.987 347.886 308.243 347.108 307.72 346.102C307.197 345.091 306.936 343.895 306.936 342.514C306.936 341.168 307.197 339.986 307.72 338.969C308.243 337.952 308.979 337.159 309.928 336.591C310.882 336.023 312.001 335.739 313.286 335.739C314.149 335.739 314.953 335.878 315.697 336.156C316.447 336.429 317.101 336.841 317.658 337.392C318.22 337.943 318.658 338.636 318.97 339.472C319.283 340.301 319.439 341.273 319.439 342.386V343.384H308.385V341.134H316.021C316.021 340.611 315.908 340.148 315.68 339.744C315.453 339.341 315.138 339.026 314.734 338.798C314.337 338.565 313.874 338.449 313.345 338.449C312.794 338.449 312.305 338.577 311.879 338.832C311.459 339.082 311.129 339.42 310.891 339.847C310.652 340.267 310.53 340.736 310.524 341.253V343.392C310.524 344.04 310.643 344.599 310.882 345.071C311.126 345.543 311.47 345.906 311.913 346.162C312.357 346.418 312.882 346.545 313.49 346.545C313.893 346.545 314.263 346.489 314.598 346.375C314.933 346.261 315.22 346.091 315.459 345.864C315.697 345.636 315.879 345.358 316.004 345.028L319.362 345.25C319.192 346.057 318.842 346.761 318.314 347.364C317.791 347.96 317.115 348.426 316.286 348.761C315.462 349.091 314.51 349.256 313.43 349.256ZM182.488 369.273C182.488 367.159 182.77 365.213 183.332 363.435C183.9 361.656 184.767 360.009 185.931 358.491H189.4C188.957 359.054 188.545 359.741 188.164 360.554C187.784 361.361 187.451 362.247 187.167 363.213C186.883 364.179 186.662 365.179 186.502 366.213C186.343 367.241 186.264 368.261 186.264 369.273C186.264 370.619 186.4 371.98 186.673 373.355C186.951 374.724 187.326 375.997 187.798 377.173C188.275 378.349 188.809 379.312 189.4 380.062H185.931C184.767 378.545 183.9 376.898 183.332 375.119C182.77 373.341 182.488 371.392 182.488 369.273ZM207.615 369.273C207.615 371.176 207.255 372.795 206.533 374.131C205.817 375.466 204.84 376.486 203.601 377.19C202.368 377.889 200.982 378.239 199.442 378.239C197.891 378.239 196.499 377.886 195.266 377.182C194.033 376.477 193.059 375.457 192.343 374.122C191.627 372.787 191.269 371.17 191.269 369.273C191.269 367.369 191.627 365.75 192.343 364.415C193.059 363.08 194.033 362.062 195.266 361.364C196.499 360.659 197.891 360.307 199.442 360.307C200.982 360.307 202.368 360.659 203.601 361.364C204.84 362.062 205.817 363.08 206.533 364.415C207.255 365.75 207.615 367.369 207.615 369.273ZM203.874 369.273C203.874 368.04 203.689 367 203.32 366.153C202.956 365.307 202.442 364.665 201.777 364.227C201.113 363.79 200.334 363.571 199.442 363.571C198.55 363.571 197.772 363.79 197.107 364.227C196.442 364.665 195.925 365.307 195.556 366.153C195.192 367 195.01 368.04 195.01 369.273C195.01 370.506 195.192 371.545 195.556 372.392C195.925 373.239 196.442 373.881 197.107 374.318C197.772 374.756 198.55 374.974 199.442 374.974C200.334 374.974 201.113 374.756 201.777 374.318C202.442 373.881 202.956 373.239 203.32 372.392C203.689 371.545 203.874 370.506 203.874 369.273ZM210.281 382.909V364.909H213.86V367.108H214.022C214.181 366.756 214.412 366.398 214.713 366.034C215.02 365.665 215.417 365.358 215.906 365.114C216.4 364.864 217.014 364.739 217.747 364.739C218.701 364.739 219.582 364.989 220.389 365.489C221.196 365.983 221.841 366.73 222.324 367.73C222.806 368.724 223.048 369.972 223.048 371.472C223.048 372.932 222.812 374.165 222.341 375.17C221.875 376.17 221.238 376.929 220.431 377.446C219.63 377.957 218.733 378.213 217.738 378.213C217.034 378.213 216.434 378.097 215.94 377.864C215.451 377.631 215.051 377.338 214.738 376.986C214.426 376.628 214.187 376.267 214.022 375.903H213.912V382.909H210.281ZM213.835 371.455C213.835 372.233 213.943 372.912 214.159 373.491C214.375 374.071 214.687 374.523 215.096 374.847C215.505 375.165 216.002 375.324 216.588 375.324C217.179 375.324 217.679 375.162 218.088 374.838C218.497 374.509 218.806 374.054 219.017 373.474C219.233 372.889 219.341 372.216 219.341 371.455C219.341 370.699 219.235 370.034 219.025 369.46C218.815 368.886 218.505 368.437 218.096 368.114C217.687 367.79 217.184 367.628 216.588 367.628C215.997 367.628 215.497 367.784 215.088 368.097C214.684 368.409 214.375 368.852 214.159 369.426C213.943 370 213.835 370.676 213.835 371.455ZM231.434 378.256C230.088 378.256 228.929 377.983 227.957 377.438C226.991 376.886 226.247 376.108 225.724 375.102C225.201 374.091 224.94 372.895 224.94 371.514C224.94 370.168 225.201 368.986 225.724 367.969C226.247 366.952 226.983 366.159 227.931 365.591C228.886 365.023 230.005 364.739 231.289 364.739C232.153 364.739 232.957 364.878 233.701 365.156C234.451 365.429 235.105 365.841 235.662 366.392C236.224 366.943 236.662 367.636 236.974 368.472C237.287 369.301 237.443 370.273 237.443 371.386V372.384H226.389V370.134H234.025C234.025 369.611 233.912 369.148 233.684 368.744C233.457 368.341 233.142 368.026 232.738 367.798C232.341 367.565 231.877 367.449 231.349 367.449C230.798 367.449 230.309 367.577 229.883 367.832C229.463 368.082 229.133 368.42 228.895 368.847C228.656 369.267 228.534 369.736 228.528 370.253V372.392C228.528 373.04 228.647 373.599 228.886 374.071C229.13 374.543 229.474 374.906 229.917 375.162C230.36 375.418 230.886 375.545 231.494 375.545C231.897 375.545 232.267 375.489 232.602 375.375C232.937 375.261 233.224 375.091 233.463 374.864C233.701 374.636 233.883 374.358 234.008 374.028L237.366 374.25C237.196 375.057 236.846 375.761 236.318 376.364C235.795 376.96 235.119 377.426 234.289 377.761C233.466 378.091 232.514 378.256 231.434 378.256ZM243.443 370.432V378H239.812V364.909H243.272V367.219H243.426C243.716 366.457 244.201 365.855 244.883 365.412C245.565 364.963 246.392 364.739 247.363 364.739C248.272 364.739 249.065 364.938 249.741 365.335C250.417 365.733 250.943 366.301 251.318 367.04C251.693 367.773 251.88 368.648 251.88 369.665V378H248.25V370.312C248.255 369.511 248.051 368.886 247.636 368.438C247.221 367.983 246.65 367.756 245.923 367.756C245.434 367.756 245.002 367.861 244.627 368.071C244.258 368.281 243.968 368.588 243.758 368.991C243.554 369.389 243.449 369.869 243.443 370.432ZM254.742 378V364.909H258.373V378H254.742ZM256.566 363.222C256.026 363.222 255.563 363.043 255.176 362.685C254.796 362.321 254.605 361.886 254.605 361.381C254.605 360.881 254.796 360.452 255.176 360.094C255.563 359.73 256.026 359.548 256.566 359.548C257.105 359.548 257.566 359.73 257.946 360.094C258.333 360.452 258.526 360.881 258.526 361.381C258.526 361.886 258.333 362.321 257.946 362.685C257.566 363.043 257.105 363.222 256.566 363.222ZM264.912 370.432V378H261.281V364.909H264.741V367.219H264.895C265.184 366.457 265.67 365.855 266.352 365.412C267.034 364.963 267.86 364.739 268.832 364.739C269.741 364.739 270.534 364.938 271.21 365.335C271.886 365.733 272.412 366.301 272.787 367.04C273.162 367.773 273.349 368.648 273.349 369.665V378H269.718V370.312C269.724 369.511 269.52 368.886 269.105 368.438C268.69 367.983 268.119 367.756 267.392 367.756C266.903 367.756 266.471 367.861 266.096 368.071C265.727 368.281 265.437 368.588 265.227 368.991C265.022 369.389 264.917 369.869 264.912 370.432ZM282.108 383.182C280.932 383.182 279.924 383.02 279.083 382.696C278.248 382.378 277.583 381.943 277.088 381.392C276.594 380.841 276.273 380.222 276.125 379.534L279.483 379.082C279.586 379.344 279.748 379.588 279.969 379.815C280.191 380.043 280.483 380.224 280.847 380.361C281.216 380.503 281.665 380.574 282.194 380.574C282.983 380.574 283.634 380.381 284.145 379.994C284.662 379.614 284.921 378.974 284.921 378.077V375.682H284.767C284.608 376.045 284.37 376.389 284.051 376.713C283.733 377.037 283.324 377.301 282.824 377.506C282.324 377.71 281.728 377.812 281.034 377.812C280.051 377.812 279.157 377.585 278.35 377.131C277.549 376.67 276.909 375.969 276.432 375.026C275.961 374.077 275.725 372.878 275.725 371.429C275.725 369.946 275.966 368.707 276.449 367.713C276.932 366.719 277.574 365.974 278.375 365.48C279.182 364.986 280.066 364.739 281.026 364.739C281.759 364.739 282.373 364.864 282.867 365.114C283.361 365.358 283.759 365.665 284.06 366.034C284.367 366.398 284.603 366.756 284.767 367.108H284.904V364.909H288.509V378.128C288.509 379.241 288.236 380.173 287.691 380.923C287.145 381.673 286.39 382.236 285.424 382.611C284.463 382.991 283.358 383.182 282.108 383.182ZM282.185 375.085C282.77 375.085 283.265 374.94 283.668 374.651C284.077 374.355 284.39 373.935 284.605 373.389C284.827 372.838 284.938 372.179 284.938 371.412C284.938 370.645 284.83 369.98 284.614 369.418C284.398 368.849 284.086 368.409 283.676 368.097C283.267 367.784 282.77 367.628 282.185 367.628C281.588 367.628 281.086 367.79 280.676 368.114C280.267 368.432 279.958 368.875 279.748 369.443C279.537 370.011 279.432 370.668 279.432 371.412C279.432 372.168 279.537 372.821 279.748 373.372C279.963 373.918 280.273 374.341 280.676 374.642C281.086 374.937 281.588 375.085 282.185 375.085ZM303.916 364.909V367.636H296.032V364.909H303.916ZM297.822 361.773H301.453V373.977C301.453 374.312 301.504 374.574 301.606 374.761C301.708 374.943 301.85 375.071 302.032 375.145C302.22 375.219 302.436 375.256 302.68 375.256C302.85 375.256 303.021 375.241 303.191 375.213C303.362 375.179 303.493 375.153 303.583 375.136L304.154 377.838C303.973 377.895 303.717 377.96 303.387 378.034C303.058 378.114 302.657 378.162 302.186 378.179C301.311 378.213 300.544 378.097 299.885 377.83C299.231 377.562 298.723 377.148 298.359 376.585C297.995 376.023 297.816 375.312 297.822 374.455V361.773ZM310.014 378.247C309.179 378.247 308.434 378.102 307.781 377.812C307.127 377.517 306.61 377.082 306.23 376.509C305.855 375.929 305.667 375.207 305.667 374.344C305.667 373.616 305.801 373.006 306.068 372.511C306.335 372.017 306.699 371.619 307.159 371.318C307.619 371.017 308.142 370.79 308.727 370.636C309.318 370.483 309.937 370.375 310.585 370.312C311.346 370.233 311.96 370.159 312.426 370.091C312.892 370.017 313.23 369.909 313.44 369.767C313.65 369.625 313.755 369.415 313.755 369.136V369.085C313.755 368.545 313.585 368.128 313.244 367.832C312.909 367.537 312.431 367.389 311.812 367.389C311.159 367.389 310.639 367.534 310.252 367.824C309.866 368.108 309.61 368.466 309.485 368.898L306.127 368.625C306.298 367.83 306.633 367.142 307.133 366.562C307.633 365.977 308.278 365.528 309.068 365.216C309.863 364.898 310.784 364.739 311.829 364.739C312.556 364.739 313.252 364.824 313.917 364.994C314.588 365.165 315.181 365.429 315.699 365.787C316.221 366.145 316.633 366.605 316.934 367.168C317.235 367.724 317.386 368.392 317.386 369.17V378H313.943V376.185H313.841C313.63 376.594 313.349 376.955 312.997 377.267C312.645 377.574 312.221 377.815 311.727 377.991C311.233 378.162 310.662 378.247 310.014 378.247ZM311.054 375.741C311.588 375.741 312.059 375.636 312.468 375.426C312.877 375.21 313.199 374.92 313.431 374.557C313.664 374.193 313.781 373.781 313.781 373.321V371.932C313.667 372.006 313.511 372.074 313.312 372.136C313.119 372.193 312.9 372.247 312.656 372.298C312.412 372.344 312.167 372.386 311.923 372.426C311.679 372.46 311.457 372.491 311.258 372.52C310.832 372.582 310.46 372.682 310.142 372.818C309.824 372.955 309.576 373.139 309.4 373.372C309.224 373.599 309.136 373.884 309.136 374.224C309.136 374.719 309.315 375.097 309.673 375.358C310.037 375.614 310.497 375.741 311.054 375.741ZM326.1 383.182C324.924 383.182 323.916 383.02 323.075 382.696C322.24 382.378 321.575 381.943 321.081 381.392C320.586 380.841 320.265 380.222 320.118 379.534L323.475 379.082C323.578 379.344 323.74 379.588 323.961 379.815C324.183 380.043 324.475 380.224 324.839 380.361C325.208 380.503 325.657 380.574 326.186 380.574C326.975 380.574 327.626 380.381 328.137 379.994C328.654 379.614 328.913 378.974 328.913 378.077V375.682H328.76C328.6 376.045 328.362 376.389 328.044 376.713C327.725 377.037 327.316 377.301 326.816 377.506C326.316 377.71 325.72 377.812 325.027 377.812C324.044 377.812 323.149 377.585 322.342 377.131C321.541 376.67 320.902 375.969 320.424 375.026C319.953 374.077 319.717 372.878 319.717 371.429C319.717 369.946 319.958 368.707 320.441 367.713C320.924 366.719 321.566 365.974 322.368 365.48C323.174 364.986 324.058 364.739 325.018 364.739C325.751 364.739 326.365 364.864 326.859 365.114C327.353 365.358 327.751 365.665 328.052 366.034C328.359 366.398 328.595 366.756 328.76 367.108H328.896V364.909H332.501V378.128C332.501 379.241 332.228 380.173 331.683 380.923C331.137 381.673 330.382 382.236 329.416 382.611C328.456 382.991 327.35 383.182 326.1 383.182ZM326.177 375.085C326.762 375.085 327.257 374.94 327.66 374.651C328.069 374.355 328.382 373.935 328.598 373.389C328.819 372.838 328.93 372.179 328.93 371.412C328.93 370.645 328.822 369.98 328.606 369.418C328.39 368.849 328.078 368.409 327.669 368.097C327.26 367.784 326.762 367.628 326.177 367.628C325.581 367.628 325.078 367.79 324.669 368.114C324.26 368.432 323.95 368.875 323.74 369.443C323.529 370.011 323.424 370.668 323.424 371.412C323.424 372.168 323.529 372.821 323.74 373.372C323.956 373.918 324.265 374.341 324.669 374.642C325.078 374.937 325.581 375.085 326.177 375.085ZM341.51 371.003C341.51 373.122 341.225 375.071 340.657 376.849C340.095 378.628 339.231 380.276 338.066 381.793H334.598C335.041 381.23 335.453 380.543 335.833 379.73C336.214 378.918 336.547 378.031 336.831 377.071C337.115 376.105 337.336 375.105 337.495 374.071C337.654 373.037 337.734 372.014 337.734 371.003C337.734 369.656 337.595 368.298 337.316 366.929C337.044 365.554 336.669 364.281 336.191 363.111C335.72 361.935 335.189 360.972 334.598 360.222H338.066C339.231 361.739 340.095 363.386 340.657 365.165C341.225 366.943 341.51 368.889 341.51 371.003Z" fill="#FF9204"/>
<path d="M643.493 340.588V337.545H657.828V340.588H652.484V355H648.837V340.588H643.493ZM662.072 355.247C661.237 355.247 660.493 355.102 659.839 354.812C659.186 354.517 658.669 354.082 658.288 353.509C657.913 352.929 657.726 352.207 657.726 351.344C657.726 350.616 657.859 350.006 658.126 349.511C658.393 349.017 658.757 348.619 659.217 348.318C659.678 348.017 660.2 347.79 660.786 347.636C661.376 347.483 661.996 347.375 662.643 347.312C663.405 347.233 664.018 347.159 664.484 347.091C664.95 347.017 665.288 346.909 665.499 346.767C665.709 346.625 665.814 346.415 665.814 346.136V346.085C665.814 345.545 665.643 345.128 665.303 344.832C664.967 344.537 664.49 344.389 663.871 344.389C663.217 344.389 662.697 344.534 662.311 344.824C661.925 345.108 661.669 345.466 661.544 345.898L658.186 345.625C658.357 344.83 658.692 344.142 659.192 343.562C659.692 342.977 660.337 342.528 661.126 342.216C661.922 341.898 662.842 341.739 663.888 341.739C664.615 341.739 665.311 341.824 665.976 341.994C666.646 342.165 667.24 342.429 667.757 342.787C668.28 343.145 668.692 343.605 668.993 344.168C669.294 344.724 669.445 345.392 669.445 346.17V355H666.001V353.185H665.899C665.689 353.594 665.408 353.955 665.055 354.267C664.703 354.574 664.28 354.815 663.786 354.991C663.291 355.162 662.72 355.247 662.072 355.247ZM663.112 352.741C663.646 352.741 664.118 352.636 664.527 352.426C664.936 352.21 665.257 351.92 665.49 351.557C665.723 351.193 665.839 350.781 665.839 350.321V348.932C665.726 349.006 665.57 349.074 665.371 349.136C665.178 349.193 664.959 349.247 664.714 349.298C664.47 349.344 664.226 349.386 663.982 349.426C663.737 349.46 663.516 349.491 663.317 349.52C662.891 349.582 662.518 349.682 662.2 349.818C661.882 349.955 661.635 350.139 661.459 350.372C661.283 350.599 661.195 350.884 661.195 351.224C661.195 351.719 661.374 352.097 661.732 352.358C662.095 352.614 662.555 352.741 663.112 352.741ZM678.159 360.182C676.983 360.182 675.974 360.02 675.134 359.696C674.298 359.378 673.634 358.943 673.139 358.392C672.645 357.841 672.324 357.222 672.176 356.534L675.534 356.082C675.636 356.344 675.798 356.588 676.02 356.815C676.241 357.043 676.534 357.224 676.898 357.361C677.267 357.503 677.716 357.574 678.244 357.574C679.034 357.574 679.685 357.381 680.196 356.994C680.713 356.614 680.972 355.974 680.972 355.077V352.682H680.818C680.659 353.045 680.42 353.389 680.102 353.713C679.784 354.037 679.375 354.301 678.875 354.506C678.375 354.71 677.778 354.812 677.085 354.812C676.102 354.812 675.207 354.585 674.401 354.131C673.599 353.67 672.96 352.969 672.483 352.026C672.011 351.077 671.776 349.878 671.776 348.429C671.776 346.946 672.017 345.707 672.5 344.713C672.983 343.719 673.625 342.974 674.426 342.48C675.233 341.986 676.116 341.739 677.077 341.739C677.81 341.739 678.423 341.864 678.918 342.114C679.412 342.358 679.81 342.665 680.111 343.034C680.418 343.398 680.653 343.756 680.818 344.108H680.955V341.909H684.56V355.128C684.56 356.241 684.287 357.173 683.741 357.923C683.196 358.673 682.44 359.236 681.474 359.611C680.514 359.991 679.409 360.182 678.159 360.182ZM678.236 352.085C678.821 352.085 679.315 351.94 679.719 351.651C680.128 351.355 680.44 350.935 680.656 350.389C680.878 349.838 680.989 349.179 680.989 348.412C680.989 347.645 680.881 346.98 680.665 346.418C680.449 345.849 680.136 345.409 679.727 345.097C679.318 344.784 678.821 344.628 678.236 344.628C677.639 344.628 677.136 344.79 676.727 345.114C676.318 345.432 676.009 345.875 675.798 346.443C675.588 347.011 675.483 347.668 675.483 348.412C675.483 349.168 675.588 349.821 675.798 350.372C676.014 350.918 676.324 351.341 676.727 351.642C677.136 351.937 677.639 352.085 678.236 352.085ZM707.671 337.545V355H704.484L696.89 344.014H696.762V355H693.072V337.545H696.31L703.844 348.523H703.998V337.545H707.671ZM714.385 355.247C713.55 355.247 712.805 355.102 712.152 354.812C711.499 354.517 710.982 354.082 710.601 353.509C710.226 352.929 710.038 352.207 710.038 351.344C710.038 350.616 710.172 350.006 710.439 349.511C710.706 349.017 711.07 348.619 711.53 348.318C711.99 348.017 712.513 347.79 713.098 347.636C713.689 347.483 714.308 347.375 714.956 347.312C715.717 347.233 716.331 347.159 716.797 347.091C717.263 347.017 717.601 346.909 717.811 346.767C718.021 346.625 718.126 346.415 718.126 346.136V346.085C718.126 345.545 717.956 345.128 717.615 344.832C717.28 344.537 716.803 344.389 716.183 344.389C715.53 344.389 715.01 344.534 714.624 344.824C714.237 345.108 713.982 345.466 713.857 345.898L710.499 345.625C710.669 344.83 711.004 344.142 711.504 343.562C712.004 342.977 712.649 342.528 713.439 342.216C714.234 341.898 715.155 341.739 716.2 341.739C716.928 341.739 717.624 341.824 718.288 341.994C718.959 342.165 719.553 342.429 720.07 342.787C720.592 343.145 721.004 343.605 721.305 344.168C721.607 344.724 721.757 345.392 721.757 346.17V355H718.314V353.185H718.212C718.001 353.594 717.72 353.955 717.368 354.267C717.016 354.574 716.592 354.815 716.098 354.991C715.604 355.162 715.033 355.247 714.385 355.247ZM715.425 352.741C715.959 352.741 716.43 352.636 716.839 352.426C717.249 352.21 717.57 351.92 717.803 351.557C718.036 351.193 718.152 350.781 718.152 350.321V348.932C718.038 349.006 717.882 349.074 717.683 349.136C717.49 349.193 717.271 349.247 717.027 349.298C716.783 349.344 716.538 349.386 716.294 349.426C716.05 349.46 715.828 349.491 715.629 349.52C715.203 349.582 714.831 349.682 714.513 349.818C714.195 349.955 713.947 350.139 713.771 350.372C713.595 350.599 713.507 350.884 713.507 351.224C713.507 351.719 713.686 352.097 714.044 352.358C714.408 352.614 714.868 352.741 715.425 352.741ZM724.574 355V341.909H728.034V344.219H728.188C728.46 343.452 728.915 342.847 729.551 342.403C730.188 341.96 730.949 341.739 731.835 341.739C732.733 341.739 733.497 341.963 734.128 342.412C734.759 342.855 735.179 343.457 735.389 344.219H735.526C735.793 343.469 736.276 342.869 736.974 342.42C737.679 341.966 738.511 341.739 739.472 341.739C740.693 341.739 741.685 342.128 742.446 342.906C743.213 343.679 743.597 344.776 743.597 346.196V355H739.974V346.912C739.974 346.185 739.781 345.639 739.395 345.276C739.009 344.912 738.526 344.73 737.946 344.73C737.287 344.73 736.773 344.94 736.403 345.361C736.034 345.776 735.849 346.324 735.849 347.006V355H732.33V346.835C732.33 346.193 732.145 345.682 731.776 345.301C731.412 344.92 730.932 344.73 730.335 344.73C729.932 344.73 729.568 344.832 729.244 345.037C728.926 345.236 728.673 345.517 728.486 345.881C728.298 346.239 728.205 346.659 728.205 347.142V355H724.574ZM752.43 355.256C751.084 355.256 749.925 354.983 748.953 354.438C747.987 353.886 747.243 353.108 746.72 352.102C746.197 351.091 745.936 349.895 745.936 348.514C745.936 347.168 746.197 345.986 746.72 344.969C747.243 343.952 747.979 343.159 748.928 342.591C749.882 342.023 751.001 341.739 752.286 341.739C753.149 341.739 753.953 341.878 754.697 342.156C755.447 342.429 756.101 342.841 756.658 343.392C757.22 343.943 757.658 344.636 757.97 345.472C758.283 346.301 758.439 347.273 758.439 348.386V349.384H747.385V347.134H755.021C755.021 346.611 754.908 346.148 754.68 345.744C754.453 345.341 754.138 345.026 753.734 344.798C753.337 344.565 752.874 344.449 752.345 344.449C751.794 344.449 751.305 344.577 750.879 344.832C750.459 345.082 750.129 345.42 749.891 345.847C749.652 346.267 749.53 346.736 749.524 347.253V349.392C749.524 350.04 749.643 350.599 749.882 351.071C750.126 351.543 750.47 351.906 750.913 352.162C751.357 352.418 751.882 352.545 752.49 352.545C752.893 352.545 753.263 352.489 753.598 352.375C753.933 352.261 754.22 352.091 754.459 351.864C754.697 351.636 754.879 351.358 755.004 351.028L758.362 351.25C758.192 352.057 757.842 352.761 757.314 353.364C756.791 353.96 756.115 354.426 755.286 354.761C754.462 355.091 753.51 355.256 752.43 355.256ZM626.715 375.273C626.715 373.159 626.996 371.213 627.559 369.435C628.127 367.656 628.993 366.009 630.158 364.491H633.627C633.184 365.054 632.772 365.741 632.391 366.554C632.01 367.361 631.678 368.247 631.394 369.213C631.11 370.179 630.888 371.179 630.729 372.213C630.57 373.241 630.49 374.261 630.49 375.273C630.49 376.619 630.627 377.98 630.9 379.355C631.178 380.724 631.553 381.997 632.025 383.173C632.502 384.349 633.036 385.312 633.627 386.062H630.158C628.993 384.545 628.127 382.898 627.559 381.119C626.996 379.341 626.715 377.392 626.715 375.273ZM651.203 372.656H647.47C647.402 372.173 647.262 371.744 647.052 371.369C646.842 370.989 646.572 370.665 646.243 370.398C645.913 370.131 645.532 369.926 645.1 369.784C644.674 369.642 644.211 369.571 643.711 369.571C642.808 369.571 642.021 369.795 641.35 370.244C640.68 370.687 640.16 371.335 639.791 372.188C639.422 373.034 639.237 374.062 639.237 375.273C639.237 376.517 639.422 377.562 639.791 378.409C640.166 379.256 640.689 379.895 641.359 380.327C642.029 380.759 642.805 380.974 643.686 380.974C644.18 380.974 644.637 380.909 645.058 380.778C645.484 380.648 645.862 380.457 646.191 380.207C646.521 379.952 646.794 379.642 647.01 379.278C647.231 378.915 647.385 378.5 647.47 378.034L651.203 378.051C651.106 378.852 650.865 379.625 650.478 380.369C650.098 381.108 649.583 381.77 648.936 382.355C648.294 382.935 647.527 383.395 646.635 383.736C645.748 384.071 644.745 384.239 643.626 384.239C642.069 384.239 640.677 383.886 639.45 383.182C638.228 382.477 637.262 381.457 636.552 380.122C635.848 378.787 635.495 377.17 635.495 375.273C635.495 373.369 635.853 371.75 636.569 370.415C637.285 369.08 638.257 368.062 639.484 367.364C640.711 366.659 642.092 366.307 643.626 366.307C644.637 366.307 645.575 366.449 646.439 366.733C647.308 367.017 648.078 367.432 648.748 367.977C649.419 368.517 649.964 369.179 650.385 369.963C650.811 370.747 651.083 371.645 651.203 372.656ZM657.412 366.545V384H653.781V366.545H657.412ZM666.235 384.256C664.911 384.256 663.766 383.974 662.8 383.412C661.84 382.844 661.098 382.054 660.576 381.043C660.053 380.026 659.792 378.847 659.792 377.506C659.792 376.153 660.053 374.972 660.576 373.96C661.098 372.943 661.84 372.153 662.8 371.591C663.766 371.023 664.911 370.739 666.235 370.739C667.559 370.739 668.701 371.023 669.661 371.591C670.627 372.153 671.371 372.943 671.894 373.96C672.417 374.972 672.678 376.153 672.678 377.506C672.678 378.847 672.417 380.026 671.894 381.043C671.371 382.054 670.627 382.844 669.661 383.412C668.701 383.974 667.559 384.256 666.235 384.256ZM666.252 381.443C666.854 381.443 667.357 381.273 667.76 380.932C668.164 380.585 668.468 380.114 668.672 379.517C668.882 378.92 668.988 378.241 668.988 377.48C668.988 376.719 668.882 376.04 668.672 375.443C668.468 374.847 668.164 374.375 667.76 374.028C667.357 373.682 666.854 373.509 666.252 373.509C665.644 373.509 665.132 373.682 664.718 374.028C664.309 374.375 663.999 374.847 663.789 375.443C663.584 376.04 663.482 376.719 663.482 377.48C663.482 378.241 663.584 378.92 663.789 379.517C663.999 380.114 664.309 380.585 664.718 380.932C665.132 381.273 665.644 381.443 666.252 381.443ZM685.931 374.642L682.607 374.847C682.55 374.562 682.428 374.307 682.24 374.08C682.053 373.847 681.806 373.662 681.499 373.526C681.198 373.384 680.837 373.312 680.417 373.312C679.854 373.312 679.38 373.432 678.993 373.67C678.607 373.903 678.414 374.216 678.414 374.608C678.414 374.92 678.539 375.185 678.789 375.401C679.039 375.616 679.468 375.79 680.076 375.92L682.445 376.398C683.718 376.659 684.667 377.08 685.292 377.659C685.917 378.239 686.229 379 686.229 379.943C686.229 380.801 685.976 381.554 685.471 382.202C684.971 382.849 684.283 383.355 683.408 383.719C682.539 384.077 681.536 384.256 680.4 384.256C678.667 384.256 677.286 383.895 676.257 383.173C675.235 382.446 674.635 381.457 674.459 380.207L678.03 380.02C678.138 380.548 678.4 380.952 678.814 381.23C679.229 381.503 679.76 381.639 680.408 381.639C681.044 381.639 681.556 381.517 681.942 381.273C682.334 381.023 682.533 380.702 682.539 380.31C682.533 379.98 682.394 379.71 682.121 379.5C681.848 379.284 681.428 379.119 680.86 379.006L678.593 378.554C677.314 378.298 676.363 377.855 675.738 377.224C675.118 376.594 674.809 375.79 674.809 374.812C674.809 373.972 675.036 373.247 675.49 372.639C675.951 372.031 676.596 371.562 677.425 371.233C678.26 370.903 679.238 370.739 680.357 370.739C682.01 370.739 683.311 371.088 684.26 371.787C685.215 372.486 685.772 373.437 685.931 374.642ZM688.515 384V370.909H692.146V384H688.515ZM690.339 369.222C689.799 369.222 689.336 369.043 688.95 368.685C688.569 368.321 688.379 367.886 688.379 367.381C688.379 366.881 688.569 366.452 688.95 366.094C689.336 365.73 689.799 365.548 690.339 365.548C690.879 365.548 691.339 365.73 691.72 366.094C692.106 366.452 692.299 366.881 692.299 367.381C692.299 367.886 692.106 368.321 691.72 368.685C691.339 369.043 690.879 369.222 690.339 369.222ZM698.685 376.432V384H695.054V370.909H698.515V373.219H698.668C698.958 372.457 699.444 371.855 700.125 371.412C700.807 370.963 701.634 370.739 702.605 370.739C703.515 370.739 704.307 370.938 704.983 371.335C705.659 371.733 706.185 372.301 706.56 373.04C706.935 373.773 707.123 374.648 707.123 375.665V384H703.492V376.312C703.498 375.511 703.293 374.886 702.878 374.438C702.463 373.983 701.892 373.756 701.165 373.756C700.676 373.756 700.245 373.861 699.87 374.071C699.5 374.281 699.211 374.588 699 374.991C698.796 375.389 698.691 375.869 698.685 376.432ZM715.882 389.182C714.706 389.182 713.697 389.02 712.856 388.696C712.021 388.378 711.356 387.943 710.862 387.392C710.368 386.841 710.047 386.222 709.899 385.534L713.257 385.082C713.359 385.344 713.521 385.588 713.743 385.815C713.964 386.043 714.257 386.224 714.62 386.361C714.99 386.503 715.439 386.574 715.967 386.574C716.757 386.574 717.407 386.381 717.919 385.994C718.436 385.614 718.694 384.974 718.694 384.077V381.682H718.541C718.382 382.045 718.143 382.389 717.825 382.713C717.507 383.037 717.098 383.301 716.598 383.506C716.098 383.71 715.501 383.812 714.808 383.812C713.825 383.812 712.93 383.585 712.123 383.131C711.322 382.67 710.683 381.969 710.206 381.026C709.734 380.077 709.498 378.878 709.498 377.429C709.498 375.946 709.74 374.707 710.223 373.713C710.706 372.719 711.348 371.974 712.149 371.48C712.956 370.986 713.839 370.739 714.799 370.739C715.532 370.739 716.146 370.864 716.64 371.114C717.135 371.358 717.532 371.665 717.833 372.034C718.14 372.398 718.376 372.756 718.541 373.108H718.677V370.909H722.282V384.128C722.282 385.241 722.01 386.173 721.464 386.923C720.919 387.673 720.163 388.236 719.197 388.611C718.237 388.991 717.132 389.182 715.882 389.182ZM715.958 381.085C716.544 381.085 717.038 380.94 717.441 380.651C717.85 380.355 718.163 379.935 718.379 379.389C718.6 378.838 718.711 378.179 718.711 377.412C718.711 376.645 718.603 375.98 718.387 375.418C718.172 374.849 717.859 374.409 717.45 374.097C717.041 373.784 716.544 373.628 715.958 373.628C715.362 373.628 714.859 373.79 714.45 374.114C714.041 374.432 713.731 374.875 713.521 375.443C713.311 376.011 713.206 376.668 713.206 377.412C713.206 378.168 713.311 378.821 713.521 379.372C713.737 379.918 714.047 380.341 714.45 380.642C714.859 380.937 715.362 381.085 715.958 381.085ZM737.689 370.909V373.636H729.806V370.909H737.689ZM731.596 367.773H735.226V379.977C735.226 380.312 735.277 380.574 735.38 380.761C735.482 380.943 735.624 381.071 735.806 381.145C735.993 381.219 736.209 381.256 736.453 381.256C736.624 381.256 736.794 381.241 736.965 381.213C737.135 381.179 737.266 381.153 737.357 381.136L737.928 383.838C737.746 383.895 737.49 383.96 737.161 384.034C736.831 384.114 736.431 384.162 735.959 384.179C735.084 384.213 734.317 384.097 733.658 383.83C733.005 383.562 732.496 383.148 732.132 382.585C731.769 382.023 731.59 381.312 731.596 380.455V367.773ZM743.787 384.247C742.952 384.247 742.208 384.102 741.554 383.812C740.901 383.517 740.384 383.082 740.003 382.509C739.628 381.929 739.441 381.207 739.441 380.344C739.441 379.616 739.574 379.006 739.841 378.511C740.108 378.017 740.472 377.619 740.932 377.318C741.392 377.017 741.915 376.79 742.5 376.636C743.091 376.483 743.711 376.375 744.358 376.312C745.12 376.233 745.733 376.159 746.199 376.091C746.665 376.017 747.003 375.909 747.213 375.767C747.424 375.625 747.529 375.415 747.529 375.136V375.085C747.529 374.545 747.358 374.128 747.017 373.832C746.682 373.537 746.205 373.389 745.586 373.389C744.932 373.389 744.412 373.534 744.026 373.824C743.64 374.108 743.384 374.466 743.259 374.898L739.901 374.625C740.071 373.83 740.407 373.142 740.907 372.562C741.407 371.977 742.051 371.528 742.841 371.216C743.637 370.898 744.557 370.739 745.603 370.739C746.33 370.739 747.026 370.824 747.691 370.994C748.361 371.165 748.955 371.429 749.472 371.787C749.995 372.145 750.407 372.605 750.708 373.168C751.009 373.724 751.159 374.392 751.159 375.17V384H747.716V382.185H747.614C747.404 382.594 747.123 382.955 746.77 383.267C746.418 383.574 745.995 383.815 745.5 383.991C745.006 384.162 744.435 384.247 743.787 384.247ZM744.827 381.741C745.361 381.741 745.833 381.636 746.242 381.426C746.651 381.21 746.972 380.92 747.205 380.557C747.438 380.193 747.554 379.781 747.554 379.321V377.932C747.441 378.006 747.284 378.074 747.086 378.136C746.892 378.193 746.674 378.247 746.429 378.298C746.185 378.344 745.941 378.386 745.696 378.426C745.452 378.46 745.23 378.491 745.032 378.52C744.605 378.582 744.233 378.682 743.915 378.818C743.597 378.955 743.35 379.139 743.174 379.372C742.998 379.599 742.909 379.884 742.909 380.224C742.909 380.719 743.088 381.097 743.446 381.358C743.81 381.614 744.27 381.741 744.827 381.741ZM759.874 389.182C758.698 389.182 757.689 389.02 756.848 388.696C756.013 388.378 755.348 387.943 754.854 387.392C754.36 386.841 754.039 386.222 753.891 385.534L757.249 385.082C757.351 385.344 757.513 385.588 757.735 385.815C757.956 386.043 758.249 386.224 758.613 386.361C758.982 386.503 759.431 386.574 759.959 386.574C760.749 386.574 761.4 386.381 761.911 385.994C762.428 385.614 762.686 384.974 762.686 384.077V381.682H762.533C762.374 382.045 762.135 382.389 761.817 382.713C761.499 383.037 761.09 383.301 760.59 383.506C760.09 383.71 759.493 383.812 758.8 383.812C757.817 383.812 756.922 383.585 756.115 383.131C755.314 382.67 754.675 381.969 754.198 381.026C753.726 380.077 753.49 378.878 753.49 377.429C753.49 375.946 753.732 374.707 754.215 373.713C754.698 372.719 755.34 371.974 756.141 371.48C756.948 370.986 757.831 370.739 758.792 370.739C759.525 370.739 760.138 370.864 760.632 371.114C761.127 371.358 761.525 371.665 761.826 372.034C762.132 372.398 762.368 372.756 762.533 373.108H762.669V370.909H766.275V384.128C766.275 385.241 766.002 386.173 765.456 386.923C764.911 387.673 764.155 388.236 763.189 388.611C762.229 388.991 761.124 389.182 759.874 389.182ZM759.951 381.085C760.536 381.085 761.03 380.94 761.434 380.651C761.843 380.355 762.155 379.935 762.371 379.389C762.593 378.838 762.703 378.179 762.703 377.412C762.703 376.645 762.596 375.98 762.38 375.418C762.164 374.849 761.851 374.409 761.442 374.097C761.033 373.784 760.536 373.628 759.951 373.628C759.354 373.628 758.851 373.79 758.442 374.114C758.033 374.432 757.723 374.875 757.513 375.443C757.303 376.011 757.198 376.668 757.198 377.412C757.198 378.168 757.303 378.821 757.513 379.372C757.729 379.918 758.039 380.341 758.442 380.642C758.851 380.937 759.354 381.085 759.951 381.085ZM775.283 377.003C775.283 379.122 774.999 381.071 774.431 382.849C773.868 384.628 773.005 386.276 771.84 387.793H768.371C768.814 387.23 769.226 386.543 769.607 385.73C769.988 384.918 770.32 384.031 770.604 383.071C770.888 382.105 771.11 381.105 771.269 380.071C771.428 379.037 771.507 378.014 771.507 377.003C771.507 375.656 771.368 374.298 771.09 372.929C770.817 371.554 770.442 370.281 769.965 369.111C769.493 367.935 768.962 366.972 768.371 366.222H771.84C773.005 367.739 773.868 369.386 774.431 371.165C774.999 372.943 775.283 374.889 775.283 377.003Z" fill="#FF9204"/>
<path d="M302.592 133H298.637L304.663 115.545H309.419L315.436 133H311.481L307.109 119.534H306.973L302.592 133ZM302.345 126.139H311.686V129.02H302.345V126.139ZM323.611 119.909V122.636H315.728V119.909H323.611ZM317.517 116.773H321.148V128.977C321.148 129.312 321.199 129.574 321.301 129.761C321.404 129.943 321.546 130.071 321.728 130.145C321.915 130.219 322.131 130.256 322.375 130.256C322.546 130.256 322.716 130.241 322.887 130.213C323.057 130.179 323.188 130.153 323.279 130.136L323.85 132.838C323.668 132.895 323.412 132.96 323.083 133.034C322.753 133.114 322.353 133.162 321.881 133.179C321.006 133.213 320.239 133.097 319.58 132.83C318.926 132.562 318.418 132.148 318.054 131.585C317.691 131.023 317.512 130.312 317.517 129.455V116.773ZM332.939 119.909V122.636H325.056V119.909H332.939ZM326.846 116.773H330.476V128.977C330.476 129.312 330.527 129.574 330.63 129.761C330.732 129.943 330.874 130.071 331.056 130.145C331.243 130.219 331.459 130.256 331.703 130.256C331.874 130.256 332.044 130.241 332.215 130.213C332.385 130.179 332.516 130.153 332.607 130.136L333.178 132.838C332.996 132.895 332.74 132.96 332.411 133.034C332.081 133.114 331.681 133.162 331.209 133.179C330.334 133.213 329.567 133.097 328.908 132.83C328.255 132.562 327.746 132.148 327.382 131.585C327.019 131.023 326.84 130.312 326.846 129.455V116.773ZM335.304 133V119.909H338.824V122.193H338.961C339.199 121.381 339.6 120.767 340.162 120.352C340.725 119.932 341.373 119.722 342.105 119.722C342.287 119.722 342.483 119.733 342.694 119.756C342.904 119.778 343.088 119.81 343.248 119.849V123.071C343.077 123.02 342.841 122.974 342.54 122.935C342.239 122.895 341.963 122.875 341.713 122.875C341.179 122.875 340.702 122.991 340.282 123.224C339.867 123.452 339.537 123.77 339.293 124.179C339.054 124.588 338.935 125.06 338.935 125.594V133H335.304ZM345.125 133V119.909H348.755V133H345.125ZM346.949 118.222C346.409 118.222 345.946 118.043 345.559 117.685C345.179 117.321 344.988 116.886 344.988 116.381C344.988 115.881 345.179 115.452 345.559 115.094C345.946 114.73 346.409 114.548 346.949 114.548C347.488 114.548 347.949 114.73 348.329 115.094C348.716 115.452 348.909 115.881 348.909 116.381C348.909 116.886 348.716 117.321 348.329 117.685C347.949 118.043 347.488 118.222 346.949 118.222ZM351.732 133V115.545H355.363V122.108H355.473C355.632 121.756 355.863 121.398 356.164 121.034C356.471 120.665 356.868 120.358 357.357 120.114C357.851 119.864 358.465 119.739 359.198 119.739C360.152 119.739 361.033 119.989 361.84 120.489C362.647 120.983 363.292 121.73 363.775 122.73C364.257 123.724 364.499 124.972 364.499 126.472C364.499 127.932 364.263 129.165 363.792 130.17C363.326 131.17 362.689 131.929 361.882 132.446C361.081 132.957 360.184 133.213 359.189 133.213C358.485 133.213 357.885 133.097 357.391 132.864C356.902 132.631 356.502 132.338 356.189 131.986C355.877 131.628 355.638 131.267 355.473 130.903H355.311V133H351.732ZM355.286 126.455C355.286 127.233 355.394 127.912 355.61 128.491C355.826 129.071 356.138 129.523 356.547 129.847C356.956 130.165 357.453 130.324 358.039 130.324C358.63 130.324 359.13 130.162 359.539 129.838C359.948 129.509 360.257 129.054 360.468 128.474C360.684 127.889 360.792 127.216 360.792 126.455C360.792 125.699 360.686 125.034 360.476 124.46C360.266 123.886 359.956 123.437 359.547 123.114C359.138 122.79 358.635 122.628 358.039 122.628C357.448 122.628 356.948 122.784 356.539 123.097C356.135 123.409 355.826 123.852 355.61 124.426C355.394 125 355.286 125.676 355.286 126.455ZM375.316 127.426V119.909H378.947V133H375.461V130.622H375.325C375.029 131.389 374.538 132.006 373.85 132.472C373.169 132.937 372.336 133.17 371.353 133.17C370.478 133.17 369.708 132.972 369.044 132.574C368.379 132.176 367.859 131.611 367.484 130.878C367.115 130.145 366.927 129.267 366.922 128.244V119.909H370.552V127.597C370.558 128.369 370.765 128.98 371.174 129.429C371.583 129.878 372.132 130.102 372.819 130.102C373.257 130.102 373.666 130.003 374.047 129.804C374.427 129.599 374.734 129.298 374.967 128.901C375.206 128.503 375.322 128.011 375.316 127.426ZM388.814 119.909V122.636H380.931V119.909H388.814ZM382.721 116.773H386.351V128.977C386.351 129.312 386.402 129.574 386.505 129.761C386.607 129.943 386.749 130.071 386.931 130.145C387.118 130.219 387.334 130.256 387.578 130.256C387.749 130.256 387.919 130.241 388.09 130.213C388.26 130.179 388.391 130.153 388.482 130.136L389.053 132.838C388.871 132.895 388.615 132.96 388.286 133.034C387.956 133.114 387.556 133.162 387.084 133.179C386.209 133.213 385.442 133.097 384.783 132.83C384.13 132.562 383.621 132.148 383.257 131.585C382.894 131.023 382.715 130.312 382.721 129.455V116.773ZM397.005 133.256C395.658 133.256 394.499 132.983 393.527 132.438C392.561 131.886 391.817 131.108 391.294 130.102C390.772 129.091 390.51 127.895 390.51 126.514C390.51 125.168 390.772 123.986 391.294 122.969C391.817 121.952 392.553 121.159 393.502 120.591C394.456 120.023 395.576 119.739 396.86 119.739C397.723 119.739 398.527 119.878 399.272 120.156C400.022 120.429 400.675 120.841 401.232 121.392C401.794 121.943 402.232 122.636 402.544 123.472C402.857 124.301 403.013 125.273 403.013 126.386V127.384H391.959V125.134H399.596C399.596 124.611 399.482 124.148 399.255 123.744C399.027 123.341 398.712 123.026 398.309 122.798C397.911 122.565 397.448 122.449 396.919 122.449C396.368 122.449 395.88 122.577 395.453 122.832C395.033 123.082 394.703 123.42 394.465 123.847C394.226 124.267 394.104 124.736 394.098 125.253V127.392C394.098 128.04 394.218 128.599 394.456 129.071C394.701 129.543 395.044 129.906 395.488 130.162C395.931 130.418 396.456 130.545 397.064 130.545C397.468 130.545 397.837 130.489 398.172 130.375C398.507 130.261 398.794 130.091 399.033 129.864C399.272 129.636 399.453 129.358 399.578 129.028L402.936 129.25C402.766 130.057 402.417 130.761 401.888 131.364C401.365 131.96 400.689 132.426 399.86 132.761C399.036 133.091 398.084 133.256 397.005 133.256Z" fill="#40C057"/>
<path d="M422.553 315.545L426.772 328.807H426.934L431.161 315.545H435.252L429.235 333H424.479L418.454 315.545H422.553ZM439.565 333.247C438.729 333.247 437.985 333.102 437.332 332.812C436.678 332.517 436.161 332.082 435.781 331.509C435.406 330.929 435.218 330.207 435.218 329.344C435.218 328.616 435.352 328.006 435.619 327.511C435.886 327.017 436.249 326.619 436.71 326.318C437.17 326.017 437.692 325.79 438.278 325.636C438.869 325.483 439.488 325.375 440.136 325.312C440.897 325.233 441.511 325.159 441.977 325.091C442.442 325.017 442.781 324.909 442.991 324.767C443.201 324.625 443.306 324.415 443.306 324.136V324.085C443.306 323.545 443.136 323.128 442.795 322.832C442.46 322.537 441.982 322.389 441.363 322.389C440.71 322.389 440.19 322.534 439.803 322.824C439.417 323.108 439.161 323.466 439.036 323.898L435.678 323.625C435.849 322.83 436.184 322.142 436.684 321.562C437.184 320.977 437.829 320.528 438.619 320.216C439.414 319.898 440.335 319.739 441.38 319.739C442.107 319.739 442.803 319.824 443.468 319.994C444.138 320.165 444.732 320.429 445.249 320.787C445.772 321.145 446.184 321.605 446.485 322.168C446.786 322.724 446.937 323.392 446.937 324.17V333H443.494V331.185H443.391C443.181 331.594 442.9 331.955 442.548 332.267C442.195 332.574 441.772 332.815 441.278 332.991C440.783 333.162 440.212 333.247 439.565 333.247ZM440.604 330.741C441.138 330.741 441.61 330.636 442.019 330.426C442.428 330.21 442.749 329.92 442.982 329.557C443.215 329.193 443.332 328.781 443.332 328.321V326.932C443.218 327.006 443.062 327.074 442.863 327.136C442.67 327.193 442.451 327.247 442.207 327.298C441.962 327.344 441.718 327.386 441.474 327.426C441.229 327.46 441.008 327.491 440.809 327.52C440.383 327.582 440.011 327.682 439.692 327.818C439.374 327.955 439.127 328.139 438.951 328.372C438.775 328.599 438.687 328.884 438.687 329.224C438.687 329.719 438.866 330.097 439.224 330.358C439.587 330.614 440.048 330.741 440.604 330.741ZM453.384 315.545V333H449.754V315.545H453.384ZM464.688 327.426V319.909H468.318V333H464.832V330.622H464.696C464.401 331.389 463.909 332.006 463.222 332.472C462.54 332.937 461.707 333.17 460.724 333.17C459.849 333.17 459.08 332.972 458.415 332.574C457.75 332.176 457.23 331.611 456.855 330.878C456.486 330.145 456.298 329.267 456.293 328.244V319.909H459.923V327.597C459.929 328.369 460.136 328.98 460.545 329.429C460.955 329.878 461.503 330.102 462.19 330.102C462.628 330.102 463.037 330.003 463.418 329.804C463.798 329.599 464.105 329.298 464.338 328.901C464.577 328.503 464.693 328.011 464.688 327.426ZM477.188 333.256C475.842 333.256 474.683 332.983 473.711 332.438C472.745 331.886 472.001 331.108 471.478 330.102C470.955 329.091 470.694 327.895 470.694 326.514C470.694 325.168 470.955 323.986 471.478 322.969C472.001 321.952 472.737 321.159 473.685 320.591C474.64 320.023 475.759 319.739 477.043 319.739C477.907 319.739 478.711 319.878 479.455 320.156C480.205 320.429 480.859 320.841 481.415 321.392C481.978 321.943 482.415 322.636 482.728 323.472C483.04 324.301 483.197 325.273 483.197 326.386V327.384H472.143V325.134H479.779C479.779 324.611 479.665 324.148 479.438 323.744C479.211 323.341 478.896 323.026 478.492 322.798C478.094 322.565 477.631 322.449 477.103 322.449C476.552 322.449 476.063 322.577 475.637 322.832C475.217 323.082 474.887 323.42 474.648 323.847C474.41 324.267 474.288 324.736 474.282 325.253V327.392C474.282 328.04 474.401 328.599 474.64 329.071C474.884 329.543 475.228 329.906 475.671 330.162C476.114 330.418 476.64 330.545 477.248 330.545C477.651 330.545 478.021 330.489 478.356 330.375C478.691 330.261 478.978 330.091 479.217 329.864C479.455 329.636 479.637 329.358 479.762 329.028L483.12 329.25C482.95 330.057 482.6 330.761 482.072 331.364C481.549 331.96 480.873 332.426 480.043 332.761C479.219 333.091 478.268 333.256 477.188 333.256Z" fill="#15AABF"/>
<path d="M555.176 118.588V115.545H569.512V118.588H564.168V133H560.52V118.588H555.176ZM575.872 133.256C574.525 133.256 573.366 132.983 572.395 132.438C571.429 131.886 570.684 131.108 570.162 130.102C569.639 129.091 569.377 127.895 569.377 126.514C569.377 125.168 569.639 123.986 570.162 122.969C570.684 121.952 571.42 121.159 572.369 120.591C573.324 120.023 574.443 119.739 575.727 119.739C576.591 119.739 577.395 119.878 578.139 120.156C578.889 120.429 579.542 120.841 580.099 121.392C580.662 121.943 581.099 122.636 581.412 123.472C581.724 124.301 581.88 125.273 581.88 126.386V127.384H570.826V125.134H578.463C578.463 124.611 578.349 124.148 578.122 123.744C577.895 123.341 577.579 123.026 577.176 122.798C576.778 122.565 576.315 122.449 575.787 122.449C575.235 122.449 574.747 122.577 574.321 122.832C573.9 123.082 573.571 123.42 573.332 123.847C573.093 124.267 572.971 124.736 572.966 125.253V127.392C572.966 128.04 573.085 128.599 573.324 129.071C573.568 129.543 573.912 129.906 574.355 130.162C574.798 130.418 575.324 130.545 575.931 130.545C576.335 130.545 576.704 130.489 577.039 130.375C577.375 130.261 577.662 130.091 577.9 129.864C578.139 129.636 578.321 129.358 578.446 129.028L581.804 129.25C581.633 130.057 581.284 130.761 580.755 131.364C580.233 131.96 579.556 132.426 578.727 132.761C577.903 133.091 576.951 133.256 575.872 133.256ZM587.049 119.909L589.453 124.486L591.916 119.909H595.64L591.848 126.455L595.743 133H592.035L589.453 128.474L586.913 133H583.163L587.049 126.455L583.299 119.909H587.049ZM604.76 119.909V122.636H596.876V119.909H604.76ZM598.666 116.773H602.297V128.977C602.297 129.312 602.348 129.574 602.45 129.761C602.552 129.943 602.694 130.071 602.876 130.145C603.064 130.219 603.279 130.256 603.524 130.256C603.694 130.256 603.865 130.241 604.035 130.213C604.206 130.179 604.336 130.153 604.427 130.136L604.998 132.838C604.816 132.895 604.561 132.96 604.231 133.034C603.902 133.114 603.501 133.162 603.029 133.179C602.154 133.213 601.387 133.097 600.728 132.83C600.075 132.562 599.566 132.148 599.203 131.585C598.839 131.023 598.66 130.312 598.666 129.455V116.773Z" fill="#BE4BDB"/>
<rect x="18.5" y="15.5" width="921" height="434" stroke="#3A3939" stroke-linecap="round" stroke-linejoin="round" stroke-dasharray="10 10"/>
<path d="M125.498 53.6722C127.125 49.4431 125.008 44.6986 120.767 43.0752C116.527 41.4518 111.77 43.5642 110.143 47.7934C108.515 52.0225 110.633 56.7669 114.873 58.3903C119.113 60.0137 123.87 57.9013 125.498 53.6722Z" fill="#4052B5"/>
<path d="M125.767 27.897C126.563 27.2539 127.759 27.7117 127.919 28.721L129.813 40.6485C129.973 41.6578 128.978 42.4617 128.021 42.0955L116.718 37.7678C115.761 37.4016 115.561 36.14 116.357 35.4969L125.767 27.897Z" fill="#4052B5"/>
<path d="M55.3537 55.2123C56.0068 55.2123 56.5995 55.1167 57.1318 54.9255C57.6713 54.7344 58.0724 54.5468 58.335 54.3627L59.6979 57.06C59.3643 57.3432 58.7929 57.63 57.9836 57.9202C57.1815 58.2105 56.2268 58.3556 55.1195 58.3556C54.0831 58.3556 53.1106 58.1751 52.2021 57.814C51.2935 57.453 50.4914 56.9468 49.7957 56.2954C49.1072 55.637 48.5642 54.8689 48.1667 53.991C47.7763 53.1061 47.5811 52.1468 47.5811 51.1131C47.5811 50.0795 47.7763 49.1202 48.1667 48.2353C48.5571 47.3432 49.0965 46.568 49.7851 45.9096C50.4807 45.2512 51.2828 44.7415 52.1914 44.3804C53.1071 44.0123 54.0831 43.8282 55.1195 43.8282C56.2268 43.8282 57.1815 43.9733 57.9836 44.2636C58.7929 44.5538 59.3643 44.8406 59.6979 45.1238L58.335 47.8211C58.0724 47.63 57.6713 47.4423 57.1318 47.2583C56.5995 47.0671 56.0068 46.9715 55.3537 46.9715C54.6297 46.9715 53.9979 47.0848 53.4585 47.3114C52.919 47.5308 52.4682 47.8353 52.1062 48.2246C51.7442 48.614 51.4745 49.053 51.297 49.5415C51.1196 50.03 51.0308 50.5432 51.0308 51.0813C51.0308 51.6264 51.1196 52.1468 51.297 52.6423C51.4745 53.1308 51.7442 53.5698 52.1062 53.9592C52.4682 54.3485 52.919 54.6565 53.4585 54.8831C53.9979 55.1025 54.6297 55.2123 55.3537 55.2123ZM64.5855 46.9928L64.8198 47.0353V58.1008H61.6362V44.0831H65.9804L71.6768 55.1273L71.4425 55.1698V44.0831H74.6261V58.1008H70.2606L64.5855 46.9928ZM81.5825 44.0831H84.7448L90.2921 58.1008H86.8956L85.8734 55.2866H80.4645L79.4317 58.1008H76.0245L81.5825 44.0831ZM81.5292 52.5043H84.8193L83.1902 47.9061H83.1583L81.5292 52.5043ZM91.352 44.0831H97.0803C97.8966 44.0831 98.6242 44.253 99.263 44.5928C99.9019 44.9326 100.406 45.4246 100.775 46.0689C101.151 46.7061 101.339 47.4671 101.339 48.3521C101.339 49.237 101.18 49.9627 100.86 50.5291C100.548 51.0884 100.172 51.5096 99.7315 51.7928C99.2914 52.0689 98.8833 52.2353 98.5071 52.2919L101.925 58.1008H98.3474L95.3022 52.5362H94.5356V58.1008H91.352V44.0831ZM94.5356 50.3379H95.941C96.5089 50.3379 97.0058 50.1999 97.4317 49.9238C97.8576 49.6477 98.0705 49.1592 98.0705 48.4583C98.0705 47.7574 97.8611 47.2724 97.4423 47.0034C97.0235 46.7273 96.5302 46.5892 95.9623 46.5892H94.5356V50.3379ZM104.135 44.0831H107.319V58.1008H104.135V44.0831ZM131.807 43.8282C132.68 43.8282 133.443 43.9238 134.096 44.1149C134.749 44.3061 135.275 44.5078 135.672 44.7202C136.07 44.9326 136.311 45.0742 136.396 45.145L134.863 47.7043C134.749 47.6193 134.554 47.4954 134.277 47.3326C134.008 47.1698 133.685 47.0246 133.308 46.8972C132.939 46.7698 132.552 46.7061 132.148 46.7061C131.601 46.7061 131.158 46.8052 130.817 47.0034C130.483 47.1946 130.316 47.4813 130.316 47.8636C130.316 48.1255 130.405 48.3627 130.583 48.5751C130.767 48.7804 131.044 48.9786 131.413 49.1698C131.789 49.3538 132.265 49.5556 132.84 49.7751C133.365 49.9662 133.858 50.1928 134.32 50.4547C134.781 50.7167 135.186 51.0282 135.534 51.3892C135.889 51.7432 136.169 52.1539 136.375 52.6211C136.581 53.0884 136.684 53.6193 136.684 54.214C136.684 54.922 136.538 55.5379 136.247 56.0618C135.956 56.5786 135.559 57.0069 135.055 57.3468C134.558 57.6866 133.99 57.9379 133.351 58.1008C132.719 58.2707 132.063 58.3556 131.381 58.3556C130.416 58.3556 129.55 58.2459 128.783 58.0264C128.024 57.8069 127.41 57.5698 126.941 57.3149C126.473 57.06 126.192 56.8901 126.1 56.8052L127.687 54.1397C127.772 54.2034 127.935 54.3061 128.176 54.4477C128.425 54.5892 128.726 54.7379 129.081 54.8937C129.436 55.0423 129.812 55.1698 130.21 55.276C130.615 55.3822 131.012 55.4353 131.402 55.4353C132.056 55.4353 132.545 55.3114 132.872 55.0636C133.198 54.8087 133.362 54.476 133.362 54.0654C133.362 53.7609 133.259 53.4884 133.053 53.2477C132.847 53.0069 132.538 52.7804 132.127 52.568C131.715 52.3485 131.2 52.1185 130.583 51.8777C129.965 51.63 129.387 51.3291 128.847 50.9751C128.315 50.6211 127.882 50.1786 127.548 49.6477C127.214 49.1167 127.048 48.4583 127.048 47.6724C127.048 46.8866 127.268 46.2069 127.708 45.6335C128.155 45.053 128.741 44.6069 129.465 44.2954C130.196 43.9839 130.977 43.8282 131.807 43.8282Z" fill="#3A3939"/>
<path d="M829.271 420.002L827.912 424H826.742L825.293 418.663H826.495L827.464 422.765L828.803 418.767H829.739L831.065 422.765L832.04 418.663H833.249L831.799 424H830.629L829.271 420.002ZM837.878 420.002L836.52 424H835.35L833.9 418.663H835.103L836.071 422.765L837.41 418.767H838.346L839.672 422.765L840.647 418.663H841.856L840.407 424H839.237L837.878 420.002ZM846.486 420.002L845.127 424H843.957L842.508 418.663H843.71L844.679 422.765L846.018 418.767H846.954L848.28 422.765L849.255 418.663H850.464L849.014 424H847.844L846.486 420.002ZM852.786 424.156C852.547 424.156 852.341 424.071 852.168 423.902C851.999 423.729 851.915 423.523 851.915 423.285C851.915 423.038 851.999 422.83 852.168 422.661C852.341 422.488 852.547 422.401 852.786 422.401C853.033 422.401 853.241 422.488 853.41 422.661C853.579 422.83 853.663 423.038 853.663 423.285C853.663 423.523 853.579 423.729 853.41 423.902C853.241 424.071 853.033 424.156 852.786 424.156ZM858.116 423.22C858.454 423.22 858.727 423.166 858.935 423.057C859.143 422.949 859.273 422.871 859.325 422.823L859.878 423.636C859.835 423.675 859.731 423.738 859.566 423.824C859.406 423.907 859.198 423.983 858.942 424.052C858.691 424.121 858.405 424.156 858.084 424.156C857.594 424.156 857.139 424.048 856.719 423.831C856.299 423.61 855.958 423.289 855.698 422.869C855.443 422.449 855.315 421.935 855.315 421.328C855.315 420.717 855.443 420.204 855.698 419.788C855.958 419.368 856.299 419.049 856.719 418.832C857.139 418.616 857.594 418.507 858.084 418.507C858.4 418.507 858.682 418.546 858.929 418.624C859.176 418.698 859.38 418.78 859.54 418.871C859.7 418.962 859.806 419.032 859.858 419.079L859.299 419.892C859.265 419.857 859.198 419.805 859.098 419.736C859.003 419.662 858.873 419.595 858.708 419.534C858.543 419.474 858.346 419.443 858.116 419.443C857.839 419.443 857.568 419.519 857.304 419.671C857.044 419.818 856.829 420.033 856.66 420.314C856.491 420.596 856.407 420.934 856.407 421.328C856.407 421.723 856.491 422.063 856.66 422.349C856.829 422.631 857.044 422.847 857.304 422.999C857.568 423.146 857.839 423.22 858.116 423.22ZM863.98 418.507C864.331 418.507 864.671 418.581 865 418.728C865.334 418.876 865.607 419.11 865.819 419.43C866.036 419.747 866.144 420.161 866.144 420.672V424H865V420.893C865 420.364 864.877 419.981 864.63 419.742C864.383 419.5 864.064 419.378 863.674 419.378C863.419 419.378 863.172 419.452 862.933 419.599C862.699 419.742 862.507 419.942 862.355 420.197C862.203 420.449 862.127 420.735 862.127 421.055V424H860.996V418.663H862.127V419.612C862.166 419.465 862.273 419.305 862.446 419.131C862.619 418.958 862.84 418.811 863.109 418.689C863.378 418.568 863.668 418.507 863.98 418.507ZM871.913 424V422.96C871.879 423.068 871.777 423.218 871.608 423.408C871.443 423.599 871.216 423.772 870.925 423.928C870.639 424.08 870.301 424.156 869.911 424.156C869.417 424.156 868.969 424.039 868.566 423.805C868.167 423.571 867.849 423.244 867.61 422.823C867.376 422.399 867.259 421.903 867.259 421.335C867.259 420.767 867.376 420.273 867.61 419.853C867.849 419.428 868.167 419.099 868.566 418.865C868.969 418.627 869.417 418.507 869.911 418.507C870.297 418.507 870.631 418.577 870.912 418.715C871.198 418.854 871.426 419.014 871.595 419.196C871.768 419.378 871.87 419.534 871.9 419.664V418.663H873.018V424H871.913ZM868.377 421.335C868.377 421.721 868.462 422.054 868.631 422.336C868.8 422.618 869.019 422.836 869.287 422.992C869.56 423.144 869.851 423.22 870.158 423.22C870.488 423.22 870.782 423.142 871.042 422.986C871.302 422.83 871.508 422.611 871.66 422.33C871.812 422.043 871.887 421.712 871.887 421.335C871.887 420.958 871.812 420.629 871.66 420.347C871.508 420.061 871.302 419.84 871.042 419.684C870.782 419.524 870.488 419.443 870.158 419.443C869.851 419.443 869.56 419.521 869.287 419.677C869.019 419.833 868.8 420.052 868.631 420.334C868.462 420.616 868.377 420.949 868.377 421.335ZM875.641 424H874.517V418.663H875.641V419.586H875.609C875.63 419.474 875.711 419.333 875.849 419.164C875.988 418.995 876.179 418.843 876.421 418.709C876.664 418.575 876.954 418.507 877.292 418.507C877.539 418.507 877.756 418.542 877.942 418.611C878.133 418.676 878.267 418.741 878.345 418.806L877.884 419.742C877.823 419.682 877.717 419.621 877.565 419.56C877.414 419.495 877.225 419.463 877 419.463C876.714 419.463 876.469 419.552 876.265 419.729C876.062 419.907 875.906 420.122 875.797 420.373C875.693 420.62 875.641 420.85 875.641 421.062V424ZM879.198 424V418.663H880.329V424H879.198ZM879.777 416.837C879.573 416.837 879.397 416.765 879.25 416.622C879.107 416.475 879.036 416.3 879.036 416.096C879.036 415.892 879.107 415.717 879.25 415.569C879.397 415.422 879.573 415.348 879.777 415.348C879.911 415.348 880.034 415.383 880.147 415.452C880.264 415.522 880.357 415.613 880.427 415.725C880.496 415.834 880.531 415.957 880.531 416.096C880.531 416.3 880.457 416.475 880.31 416.622C880.162 416.765 879.985 416.837 879.777 416.837ZM884.528 424.156C883.978 424.156 883.488 424.033 883.059 423.786C882.634 423.538 882.301 423.205 882.058 422.784C881.815 422.36 881.694 421.881 881.694 421.348C881.694 420.815 881.815 420.334 882.058 419.905C882.301 419.476 882.634 419.136 883.059 418.884C883.488 418.633 883.978 418.507 884.528 418.507C885.074 418.507 885.557 418.633 885.977 418.884C886.402 419.136 886.734 419.476 886.972 419.905C887.21 420.334 887.329 420.815 887.329 421.348C887.329 421.881 887.21 422.36 886.972 422.784C886.734 423.205 886.402 423.538 885.977 423.786C885.557 424.033 885.074 424.156 884.528 424.156ZM884.528 423.188C884.875 423.188 885.176 423.107 885.431 422.947C885.691 422.787 885.893 422.568 886.036 422.29C886.179 422.009 886.25 421.692 886.25 421.341C886.25 420.99 886.179 420.674 886.036 420.392C885.893 420.111 885.691 419.888 885.431 419.723C885.176 419.558 884.875 419.476 884.528 419.476C884.177 419.476 883.871 419.558 883.611 419.723C883.351 419.888 883.148 420.111 883 420.392C882.857 420.674 882.786 420.99 882.786 421.341C882.786 421.692 882.857 422.009 883 422.29C883.148 422.568 883.351 422.787 883.611 422.947C883.871 423.107 884.177 423.188 884.528 423.188ZM890.585 418.507C890.863 418.507 891.121 418.536 891.359 418.592C891.602 418.648 891.81 418.715 891.983 418.793C892.161 418.871 892.286 418.941 892.36 419.001L891.911 419.716C891.825 419.638 891.669 419.552 891.443 419.456C891.218 419.357 890.967 419.307 890.689 419.307C890.386 419.307 890.128 419.368 889.916 419.489C889.704 419.606 889.597 419.777 889.597 420.002C889.597 420.228 889.706 420.408 889.922 420.542C890.143 420.672 890.438 420.78 890.806 420.867C891.101 420.936 891.376 421.029 891.632 421.146C891.892 421.263 892.102 421.426 892.262 421.634C892.423 421.838 892.503 422.111 892.503 422.453C892.503 422.765 892.438 423.031 892.308 423.252C892.178 423.469 892.002 423.645 891.781 423.779C891.56 423.909 891.313 424.004 891.04 424.065C890.767 424.126 890.49 424.156 890.208 424.156C889.879 424.156 889.582 424.121 889.318 424.052C889.054 423.987 888.83 423.909 888.648 423.818C888.471 423.723 888.341 423.64 888.258 423.571L888.707 422.765C888.82 422.873 889.004 422.988 889.259 423.109C889.519 423.231 889.814 423.291 890.143 423.291C890.507 423.291 890.802 423.216 891.027 423.064C891.253 422.908 891.365 422.706 891.365 422.459C891.365 422.273 891.311 422.124 891.203 422.011C891.095 421.898 890.949 421.807 890.767 421.738C890.585 421.669 890.386 421.608 890.169 421.556C889.961 421.508 889.758 421.445 889.558 421.367C889.363 421.289 889.184 421.19 889.019 421.068C888.859 420.943 888.731 420.791 888.635 420.613C888.54 420.431 888.492 420.219 888.492 419.976C888.492 419.669 888.59 419.407 888.785 419.19C888.98 418.969 889.236 418.8 889.552 418.683C889.868 418.566 890.213 418.507 890.585 418.507ZM895.023 424.156C894.785 424.156 894.579 424.071 894.405 423.902C894.236 423.729 894.152 423.523 894.152 423.285C894.152 423.038 894.236 422.83 894.405 422.661C894.579 422.488 894.785 422.401 895.023 422.401C895.27 422.401 895.478 422.488 895.647 422.661C895.816 422.83 895.9 423.038 895.9 423.285C895.9 423.523 895.816 423.729 895.647 423.902C895.478 424.071 895.27 424.156 895.023 424.156ZM900.354 423.22C900.692 423.22 900.965 423.166 901.173 423.057C901.381 422.949 901.511 422.871 901.563 422.823L902.115 423.636C902.072 423.675 901.968 423.738 901.803 423.824C901.643 423.907 901.435 423.983 901.179 424.052C900.928 424.121 900.642 424.156 900.321 424.156C899.832 424.156 899.377 424.048 898.956 423.831C898.536 423.61 898.196 423.289 897.936 422.869C897.68 422.449 897.552 421.935 897.552 421.328C897.552 420.717 897.68 420.204 897.936 419.788C898.196 419.368 898.536 419.049 898.956 418.832C899.377 418.616 899.832 418.507 900.321 418.507C900.638 418.507 900.919 418.546 901.166 418.624C901.413 418.698 901.617 418.78 901.777 418.871C901.938 418.962 902.044 419.032 902.096 419.079L901.537 419.892C901.502 419.857 901.435 419.805 901.335 419.736C901.24 419.662 901.11 419.595 900.945 419.534C900.781 419.474 900.583 419.443 900.354 419.443C900.076 419.443 899.806 419.519 899.541 419.671C899.281 419.818 899.067 420.033 898.898 420.314C898.729 420.596 898.644 420.934 898.644 421.328C898.644 421.723 898.729 422.063 898.898 422.349C899.067 422.631 899.281 422.847 899.541 422.999C899.806 423.146 900.076 423.22 900.354 423.22ZM905.704 424.156C905.153 424.156 904.664 424.033 904.235 423.786C903.81 423.538 903.476 423.205 903.234 422.784C902.991 422.36 902.87 421.881 902.87 421.348C902.87 420.815 902.991 420.334 903.234 419.905C903.476 419.476 903.81 419.136 904.235 418.884C904.664 418.633 905.153 418.507 905.704 418.507C906.25 418.507 906.733 418.633 907.153 418.884C907.578 419.136 907.909 419.476 908.148 419.905C908.386 420.334 908.505 420.815 908.505 421.348C908.505 421.881 908.386 422.36 908.148 422.784C907.909 423.205 907.578 423.538 907.153 423.786C906.733 424.033 906.25 424.156 905.704 424.156ZM905.704 423.188C906.05 423.188 906.352 423.107 906.607 422.947C906.867 422.787 907.069 422.568 907.212 422.29C907.355 422.009 907.426 421.692 907.426 421.341C907.426 420.99 907.355 420.674 907.212 420.392C907.069 420.111 906.867 419.888 906.607 419.723C906.352 419.558 906.05 419.476 905.704 419.476C905.353 419.476 905.047 419.558 904.787 419.723C904.527 419.888 904.324 420.111 904.176 420.392C904.033 420.674 903.962 420.99 903.962 421.341C903.962 421.692 904.033 422.009 904.176 422.29C904.324 422.568 904.527 422.787 904.787 422.947C905.047 423.107 905.353 423.188 905.704 423.188ZM916.162 418.507C916.556 418.507 916.894 418.594 917.176 418.767C917.457 418.936 917.672 419.196 917.819 419.547C917.971 419.898 918.047 420.347 918.047 420.893V424H916.929V421.12C916.929 420.544 916.848 420.111 916.688 419.82C916.528 419.53 916.235 419.385 915.811 419.385C915.585 419.385 915.369 419.448 915.161 419.573C914.957 419.695 914.788 419.883 914.654 420.139C914.524 420.395 914.459 420.722 914.459 421.12V424H913.406V421.12C913.406 420.544 913.306 420.111 913.107 419.82C912.907 419.53 912.628 419.385 912.268 419.385C912.038 419.385 911.822 419.446 911.618 419.567C911.419 419.684 911.256 419.87 911.131 420.126C911.005 420.382 910.942 420.713 910.942 421.12V424H909.818V418.663H910.942V419.482C910.99 419.348 911.092 419.205 911.248 419.053C911.408 418.902 911.612 418.774 911.859 418.67C912.11 418.562 912.389 418.507 912.697 418.507C913.018 418.507 913.286 418.572 913.503 418.702C913.72 418.832 913.891 418.993 914.017 419.183C914.142 419.37 914.229 419.55 914.277 419.723C914.337 419.537 914.454 419.35 914.628 419.164C914.801 418.973 915.02 418.817 915.284 418.696C915.548 418.57 915.841 418.507 916.162 418.507Z" fill="black"/>
</svg>
