<svg width="1440" height="859" viewBox="0 0 1440 859" fill="none" xmlns="http://www.w3.org/2000/svg">
<g opacity="0.2">
<path d="M1250.81 176.095C1247.5 176.095 1244.68 174.941 1242.38 172.635C1240.07 170.329 1238.92 167.518 1238.92 164.203V141.5C1238.92 139.122 1239.77 137.086 1241.46 135.392C1243.15 133.698 1245.19 132.851 1247.57 132.851C1249.95 132.851 1251.98 133.698 1253.68 135.392C1255.37 137.086 1256.22 139.122 1256.22 141.5V162.041C1256.22 163.554 1255.69 164.833 1254.65 165.878C1253.6 166.923 1252.32 167.446 1250.81 167.446C1249.3 167.446 1248.02 166.923 1246.97 165.878C1245.93 164.833 1245.41 163.554 1245.41 162.041V141.5H1248.65V162.041C1248.65 162.653 1248.86 163.167 1249.27 163.581C1249.68 163.995 1250.2 164.203 1250.81 164.203C1251.42 164.203 1251.94 163.995 1252.35 163.581C1252.77 163.167 1252.97 162.653 1252.97 162.041V141.5C1252.97 139.986 1252.45 138.707 1251.41 137.662C1250.36 136.617 1249.08 136.095 1247.57 136.095C1246.05 136.095 1244.77 136.617 1243.73 137.662C1242.68 138.707 1242.16 139.986 1242.16 141.5V164.203C1242.16 166.581 1243.01 168.617 1244.7 170.311C1246.4 172.005 1248.43 172.851 1250.81 172.851C1253.19 172.851 1255.23 172.005 1256.92 170.311C1258.61 168.617 1259.46 166.581 1259.46 164.203V141.5H1262.7V164.203C1262.7 167.518 1261.55 170.329 1259.24 172.635C1256.94 174.941 1254.13 176.095 1250.81 176.095Z" fill="#4051B5"/>
<path d="M1399.35 590.365L1414.59 575.122L1411.57 572.095L1399.35 584.311L1393.19 578.149L1390.16 581.176L1399.35 590.365ZM1387.24 600.743C1386.05 600.743 1385.04 600.32 1384.19 599.473C1383.34 598.626 1382.92 597.608 1382.92 596.419V566.149C1382.92 564.959 1383.34 563.941 1384.19 563.095C1385.04 562.248 1386.05 561.824 1387.24 561.824H1417.51C1418.7 561.824 1419.72 562.248 1420.57 563.095C1421.41 563.941 1421.84 564.959 1421.84 566.149V596.419C1421.84 597.608 1421.41 598.626 1420.57 599.473C1419.72 600.32 1418.7 600.743 1417.51 600.743H1387.24ZM1387.24 596.419H1417.51V566.149H1387.24V596.419Z" fill="#4051B5"/>
<path d="M1206.05 825.608C1204.86 825.608 1203.85 825.185 1203 824.338C1202.15 823.491 1201.73 822.473 1201.73 821.284V795.338C1201.73 794.149 1202.15 793.131 1203 792.284C1203.85 791.437 1204.86 791.013 1206.05 791.013H1219.03L1223.35 795.338H1240.65C1241.84 795.338 1242.86 795.761 1243.7 796.608C1244.55 797.455 1244.97 798.473 1244.97 799.662V821.284C1244.97 822.473 1244.55 823.491 1243.7 824.338C1242.86 825.185 1241.84 825.608 1240.65 825.608H1206.05ZM1206.05 821.284H1240.65V799.662H1221.57L1217.24 795.338H1206.05V821.284Z" fill="#4051B5"/>
<path d="M1111.35 714.473C1110.16 714.473 1109.14 714.05 1108.3 713.203C1107.45 712.356 1107.03 711.338 1107.03 710.149V688.527C1107.03 687.338 1107.45 686.32 1108.3 685.473C1109.14 684.626 1110.16 684.203 1111.35 684.203H1145.95C1147.14 684.203 1148.15 684.626 1149 685.473C1149.85 686.32 1150.27 687.338 1150.27 688.527V710.149C1150.27 711.338 1149.85 712.356 1149 713.203C1148.15 714.05 1147.14 714.473 1145.95 714.473H1111.35ZM1111.35 710.149H1145.95V688.527H1111.35V710.149ZM1120 707.986H1137.3V703.662H1120V707.986ZM1113.51 701.5H1117.84V697.176H1113.51V701.5ZM1120 701.5H1124.32V697.176H1120V701.5ZM1126.49 701.5H1130.81V697.176H1126.49V701.5ZM1132.97 701.5H1137.3V697.176H1132.97V701.5ZM1139.46 701.5H1143.78V697.176H1139.46V701.5ZM1113.51 695.014H1117.84V690.689H1113.51V695.014ZM1120 695.014H1124.32V690.689H1120V695.014ZM1126.49 695.014H1130.81V690.689H1126.49V695.014ZM1132.97 695.014H1137.3V690.689H1132.97V695.014ZM1139.46 695.014H1143.78V690.689H1139.46V695.014Z" fill="#4051B5"/>
<path d="M1372.97 429.932H1364.32C1361.33 429.932 1358.78 428.878 1356.68 426.77C1354.57 424.662 1353.51 422.113 1353.51 419.122C1353.51 416.131 1354.57 413.581 1356.68 411.473C1358.78 409.365 1361.33 408.311 1364.32 408.311H1372.97V412.635H1364.32C1362.52 412.635 1360.99 413.266 1359.73 414.527C1358.47 415.788 1357.84 417.32 1357.84 419.122C1357.84 420.923 1358.47 422.455 1359.73 423.716C1360.99 424.978 1362.52 425.608 1364.32 425.608H1372.97V429.932ZM1366.49 421.284V416.959H1383.78V421.284H1366.49ZM1377.3 429.932V425.608H1385.95C1387.75 425.608 1389.28 424.978 1390.54 423.716C1391.8 422.455 1392.43 420.923 1392.43 419.122C1392.43 417.32 1391.8 415.788 1390.54 414.527C1389.28 413.266 1387.75 412.635 1385.95 412.635H1377.3V408.311H1385.95C1388.94 408.311 1391.49 409.365 1393.59 411.473C1395.7 413.581 1396.76 416.131 1396.76 419.122C1396.76 422.113 1395.7 424.662 1393.59 426.77C1391.49 428.878 1388.94 429.932 1385.95 429.932H1377.3Z" fill="#4051B5"/>
<path d="M1375.14 763.338C1378.13 763.338 1380.68 762.284 1382.78 760.176C1384.89 758.068 1385.95 755.518 1385.95 752.527C1385.95 749.536 1384.89 746.986 1382.78 744.878C1380.68 742.77 1378.13 741.716 1375.14 741.716C1372.14 741.716 1369.59 742.77 1367.49 744.878C1365.38 746.986 1364.32 749.536 1364.32 752.527C1364.32 755.518 1365.38 758.068 1367.49 760.176C1369.59 762.284 1372.14 763.338 1375.14 763.338ZM1375.14 774.149C1372.14 774.149 1369.33 773.581 1366.7 772.446C1364.07 771.311 1361.78 769.77 1359.84 767.824C1357.89 765.878 1356.35 763.59 1355.22 760.959C1354.08 758.329 1353.51 755.518 1353.51 752.527C1353.51 749.536 1354.08 746.725 1355.22 744.095C1356.35 741.464 1357.89 739.176 1359.84 737.23C1361.78 735.284 1364.07 733.743 1366.7 732.608C1369.33 731.473 1372.14 730.905 1375.14 730.905C1378.13 730.905 1380.94 731.473 1383.57 732.608C1386.2 733.743 1388.49 735.284 1390.43 737.23C1392.38 739.176 1393.92 741.464 1395.05 744.095C1396.19 746.725 1396.76 749.536 1396.76 752.527C1396.76 755.518 1396.19 758.329 1395.05 760.959C1393.92 763.59 1392.38 765.878 1390.43 767.824C1388.49 769.77 1386.2 771.311 1383.57 772.446C1380.94 773.581 1378.13 774.149 1375.14 774.149ZM1375.14 769.824C1379.96 769.824 1384.05 768.149 1387.41 764.797C1390.76 761.446 1392.43 757.356 1392.43 752.527C1392.43 747.698 1390.76 743.608 1387.41 740.257C1384.05 736.905 1379.96 735.23 1375.14 735.23C1370.31 735.23 1366.22 736.905 1362.86 740.257C1359.51 743.608 1357.84 747.698 1357.84 752.527C1357.84 757.356 1359.51 761.446 1362.86 764.797C1366.22 768.149 1370.31 769.824 1375.14 769.824Z" fill="#4051B5"/>
<path d="M1245.41 523.554C1243.89 523.554 1242.61 523.032 1241.57 521.987C1240.52 520.941 1240 519.662 1240 518.149C1240 516.635 1240.52 515.356 1241.57 514.311C1242.61 513.266 1243.89 512.743 1245.41 512.743C1246.92 512.743 1248.2 513.266 1249.24 514.311C1250.29 515.356 1250.81 516.635 1250.81 518.149C1250.81 519.662 1250.29 520.941 1249.24 521.987C1248.2 523.032 1246.92 523.554 1245.41 523.554ZM1236.76 535.446C1235.57 535.446 1234.55 535.023 1233.7 534.176C1232.86 533.329 1232.43 532.311 1232.43 531.122V500.851C1232.43 499.662 1232.86 498.644 1233.7 497.797C1234.55 496.951 1235.57 496.527 1236.76 496.527H1238.92V492.203H1243.24V496.527H1260.54V492.203H1264.86V496.527H1267.03C1268.22 496.527 1269.23 496.951 1270.08 497.797C1270.93 498.644 1271.35 499.662 1271.35 500.851V531.122C1271.35 532.311 1270.93 533.329 1270.08 534.176C1269.23 535.023 1268.22 535.446 1267.03 535.446H1236.76ZM1236.76 531.122H1267.03V509.5H1236.76V531.122Z" fill="#4051B5"/>
<path d="M1394.59 258.689V224.095L1435.68 241.392L1394.59 258.689ZM1398.92 252.203L1424.54 241.392L1398.92 230.581V238.149L1411.89 241.392L1398.92 244.635V252.203ZM1398.92 252.203V241.392V230.581V238.149V244.635V252.203Z" fill="#4051B5"/>
<path d="M391.351 836.851L377.73 823.23C376.649 824.095 375.405 824.779 374 825.284C372.595 825.788 371.099 826.041 369.514 826.041C365.586 826.041 362.261 824.68 359.541 821.96C356.82 819.239 355.459 815.914 355.459 811.987C355.459 808.059 356.82 804.734 359.541 802.014C362.261 799.293 365.586 797.932 369.514 797.932C373.441 797.932 376.766 799.293 379.486 802.014C382.207 804.734 383.568 808.059 383.568 811.987C383.568 813.572 383.315 815.068 382.811 816.473C382.306 817.878 381.622 819.122 380.757 820.203L394.378 833.824L391.351 836.851ZM369.514 821.716C372.216 821.716 374.514 820.77 376.405 818.878C378.297 816.987 379.243 814.689 379.243 811.987C379.243 809.284 378.297 806.987 376.405 805.095C374.514 803.203 372.216 802.257 369.514 802.257C366.811 802.257 364.514 803.203 362.622 805.095C360.73 806.987 359.784 809.284 359.784 811.987C359.784 814.689 360.73 816.987 362.622 818.878C364.514 820.77 366.811 821.716 369.514 821.716Z" fill="#4051B5"/>
<path d="M25.9459 823.014C24.7567 823.014 23.7387 822.59 22.8919 821.743C22.045 820.896 21.6216 819.878 21.6216 818.689C21.6216 817.5 22.045 816.482 22.8919 815.635C23.7387 814.788 24.7567 814.365 25.9459 814.365C27.1351 814.365 28.1531 814.788 29 815.635C29.8468 816.482 30.2703 817.5 30.2703 818.689C30.2703 819.878 29.8468 820.896 29 821.743C28.1531 822.59 27.1351 823.014 25.9459 823.014ZM25.9459 810.041C24.7567 810.041 23.7387 809.617 22.8919 808.77C22.045 807.923 21.6216 806.905 21.6216 805.716C21.6216 804.527 22.045 803.509 22.8919 802.662C23.7387 801.815 24.7567 801.392 25.9459 801.392C27.1351 801.392 28.1531 801.815 29 802.662C29.8468 803.509 30.2703 804.527 30.2703 805.716C30.2703 806.905 29.8468 807.923 29 808.77C28.1531 809.617 27.1351 810.041 25.9459 810.041ZM25.9459 797.068C24.7567 797.068 23.7387 796.644 22.8919 795.797C22.045 794.95 21.6216 793.932 21.6216 792.743C21.6216 791.554 22.045 790.536 22.8919 789.689C23.7387 788.842 24.7567 788.419 25.9459 788.419C27.1351 788.419 28.1531 788.842 29 789.689C29.8468 790.536 30.2703 791.554 30.2703 792.743C30.2703 793.932 29.8468 794.95 29 795.797C28.1531 796.644 27.1351 797.068 25.9459 797.068Z" fill="#4051B5"/>
<path d="M25.9459 432.095C23.5676 432.095 21.5315 431.248 19.8378 429.554C18.1441 427.86 17.2973 425.824 17.2973 423.446C17.2973 421.068 18.1441 419.032 19.8378 417.338C21.5315 415.644 23.5676 414.797 25.9459 414.797C28.3243 414.797 30.3604 415.644 32.0541 417.338C33.7477 419.032 34.5946 421.068 34.5946 423.446C34.5946 425.824 33.7477 427.86 32.0541 429.554C30.3604 431.248 28.3243 432.095 25.9459 432.095ZM8.64865 449.392V443.338C8.64865 442.113 8.96397 440.987 9.5946 439.96C10.2252 438.932 11.0631 438.149 12.1081 437.608C14.3423 436.491 16.6126 435.653 18.9189 435.095C21.2252 434.536 23.5676 434.257 25.9459 434.257C28.3243 434.257 30.6667 434.536 32.973 435.095C35.2793 435.653 37.5496 436.491 39.7838 437.608C40.8288 438.149 41.6667 438.932 42.2973 439.96C42.9279 440.987 43.2432 442.113 43.2432 443.338V449.392H8.64865ZM12.973 445.068H38.9189V443.338C38.9189 442.942 38.8198 442.581 38.6216 442.257C38.4234 441.932 38.1622 441.68 37.8378 441.5C35.8919 440.527 33.9279 439.797 31.9459 439.311C29.964 438.824 27.964 438.581 25.9459 438.581C23.9279 438.581 21.9279 438.824 19.9459 439.311C17.964 439.797 16 440.527 14.0541 441.5C13.7297 441.68 13.4685 441.932 13.2703 442.257C13.0721 442.581 12.973 442.942 12.973 443.338V445.068ZM25.9459 427.77C27.1351 427.77 28.1532 427.347 29 426.5C29.8468 425.653 30.2703 424.635 30.2703 423.446C30.2703 422.257 29.8468 421.239 29 420.392C28.1532 419.545 27.1351 419.122 25.9459 419.122C24.7568 419.122 23.7387 419.545 22.8919 420.392C22.045 421.239 21.6216 422.257 21.6216 423.446C21.6216 424.635 22.045 425.653 22.8919 426.5C23.7387 427.347 24.7568 427.77 25.9459 427.77Z" fill="#4051B5"/>
<path d="M73.2973 591.446L76.3243 588.419L68.3243 580.419V570.473H64V582.149L73.2973 591.446ZM66.1622 602.905C63.1712 602.905 60.3604 602.338 57.7297 601.203C55.0991 600.068 52.8108 598.527 50.8649 596.581C48.9189 594.635 47.3784 592.347 46.2432 589.716C45.1081 587.086 44.5405 584.275 44.5405 581.284C44.5405 578.293 45.1081 575.482 46.2432 572.851C47.3784 570.221 48.9189 567.932 50.8649 565.986C52.8108 564.04 55.0991 562.5 57.7297 561.365C60.3604 560.23 63.1712 559.662 66.1622 559.662C69.1532 559.662 71.964 560.23 74.5946 561.365C77.2252 562.5 79.5135 564.04 81.4595 565.986C83.4054 567.932 84.9459 570.221 86.0811 572.851C87.2162 575.482 87.7838 578.293 87.7838 581.284C87.7838 584.275 87.2162 587.086 86.0811 589.716C84.9459 592.347 83.4054 594.635 81.4595 596.581C79.5135 598.527 77.2252 600.068 74.5946 601.203C71.964 602.338 69.1532 602.905 66.1622 602.905ZM66.1622 598.581C70.955 598.581 75.036 596.896 78.4054 593.527C81.7748 590.158 83.4595 586.077 83.4595 581.284C83.4595 576.491 81.7748 572.41 78.4054 569.04C75.036 565.671 70.955 563.986 66.1622 563.986C61.3694 563.986 57.2883 565.671 53.9189 569.04C50.5496 572.41 48.8649 576.491 48.8649 581.284C48.8649 586.077 50.5496 590.158 53.9189 593.527C57.2883 596.896 61.3694 598.581 66.1622 598.581Z" fill="#4051B5"/>
<path d="M305.73 613.716H340.324V596.419H325.189V587.77H305.73V613.716ZM305.73 618.041C304.541 618.041 303.523 617.617 302.676 616.77C301.829 615.923 301.405 614.905 301.405 613.716V587.77C301.405 586.581 301.829 585.563 302.676 584.716C303.523 583.869 304.541 583.446 305.73 583.446H340.324C341.514 583.446 342.532 583.869 343.378 584.716C344.225 585.563 344.649 586.581 344.649 587.77V613.716C344.649 614.905 344.225 615.923 343.378 616.77C342.532 617.617 341.514 618.041 340.324 618.041H305.73Z" fill="#4051B5"/>
<path d="M160 709.284V691.662L154.378 697.284L151.351 694.149L162.162 683.338L172.973 694.149L169.946 697.284L164.324 691.662V709.284H160ZM149.189 717.932C148 717.932 146.982 717.509 146.135 716.662C145.288 715.815 144.865 714.797 144.865 713.608V707.122H149.189V713.608H175.135V707.122H179.459V713.608C179.459 714.797 179.036 715.815 178.189 716.662C177.342 717.509 176.324 717.932 175.135 717.932H149.189Z" fill="#4051B5"/>
<path d="M1403.68 47.6622C1401.87 47.6622 1400.34 47.0315 1399.08 45.7703C1397.82 44.509 1397.19 42.9775 1397.19 41.1757C1397.19 40.9234 1397.21 40.6622 1397.24 40.3919C1397.28 40.1216 1397.33 39.8784 1397.41 39.6622L1382.16 30.7973C1381.55 31.3378 1380.86 31.7613 1380.11 32.0676C1379.35 32.3739 1378.56 32.527 1377.73 32.527C1375.93 32.527 1374.4 31.8964 1373.14 30.6351C1371.87 29.3739 1371.24 27.8423 1371.24 26.0405C1371.24 24.2387 1371.87 22.7072 1373.14 21.4459C1374.4 20.1847 1375.93 19.554 1377.73 19.554C1378.56 19.554 1379.35 19.7072 1380.11 20.0135C1380.86 20.3198 1381.55 20.7432 1382.16 21.2838L1397.41 12.4189C1397.33 12.2027 1397.28 11.9595 1397.24 11.6892C1397.21 11.4189 1397.19 11.1577 1397.19 10.9054C1397.19 9.1036 1397.82 7.57207 1399.08 6.31081C1400.34 5.04955 1401.87 4.41891 1403.68 4.41891C1405.48 4.41891 1407.01 5.04955 1408.27 6.31081C1409.53 7.57207 1410.16 9.1036 1410.16 10.9054C1410.16 12.7072 1409.53 14.2387 1408.27 15.5C1407.01 16.7613 1405.48 17.3919 1403.68 17.3919C1402.85 17.3919 1402.05 17.2387 1401.3 16.9324C1400.54 16.6261 1399.86 16.2027 1399.24 15.6622L1384 24.527C1384.07 24.7432 1384.13 24.9865 1384.16 25.2568C1384.2 25.527 1384.22 25.7883 1384.22 26.0405C1384.22 26.2928 1384.2 26.554 1384.16 26.8243C1384.13 27.0946 1384.07 27.3378 1384 27.554L1399.24 36.4189C1399.86 35.8784 1400.54 35.455 1401.3 35.1486C1402.05 34.8423 1402.85 34.6892 1403.68 34.6892C1405.48 34.6892 1407.01 35.3198 1408.27 36.5811C1409.53 37.8423 1410.16 39.3739 1410.16 41.1757C1410.16 42.9775 1409.53 44.509 1408.27 45.7703C1407.01 47.0315 1405.48 47.6622 1403.68 47.6622ZM1403.68 13.0676C1404.29 13.0676 1404.8 12.8604 1405.22 12.4459C1405.63 12.0315 1405.84 11.518 1405.84 10.9054C1405.84 10.2928 1405.63 9.77928 1405.22 9.36486C1404.8 8.95045 1404.29 8.74324 1403.68 8.74324C1403.06 8.74324 1402.55 8.95045 1402.14 9.36486C1401.72 9.77928 1401.51 10.2928 1401.51 10.9054C1401.51 11.518 1401.72 12.0315 1402.14 12.4459C1402.55 12.8604 1403.06 13.0676 1403.68 13.0676ZM1377.73 28.2027C1378.34 28.2027 1378.86 27.9955 1379.27 27.5811C1379.68 27.1667 1379.89 26.6531 1379.89 26.0405C1379.89 25.4279 1379.68 24.9144 1379.27 24.5C1378.86 24.0856 1378.34 23.8784 1377.73 23.8784C1377.12 23.8784 1376.6 24.0856 1376.19 24.5C1375.77 24.9144 1375.57 25.4279 1375.57 26.0405C1375.57 26.6531 1375.77 27.1667 1376.19 27.5811C1376.6 27.9955 1377.12 28.2027 1377.73 28.2027ZM1403.68 43.3378C1404.29 43.3378 1404.8 43.1306 1405.22 42.7162C1405.63 42.3018 1405.84 41.7883 1405.84 41.1757C1405.84 40.5631 1405.63 40.0495 1405.22 39.6351C1404.8 39.2207 1404.29 39.0135 1403.68 39.0135C1403.06 39.0135 1402.55 39.2207 1402.14 39.6351C1401.72 40.0495 1401.51 40.5631 1401.51 41.1757C1401.51 41.7883 1401.72 42.3018 1402.14 42.7162C1402.55 43.1306 1403.06 43.3378 1403.68 43.3378Z" fill="#4051B5"/>
<path d="M618.378 850.257C617.189 850.257 616.171 849.833 615.324 848.986C614.477 848.14 614.054 847.122 614.054 845.932V819.986C614.054 818.797 614.477 817.779 615.324 816.932C616.171 816.086 617.189 815.662 618.378 815.662H652.973C654.162 815.662 655.18 816.086 656.027 816.932C656.874 817.779 657.297 818.797 657.297 819.986V845.932C657.297 847.122 656.874 848.14 656.027 848.986C655.18 849.833 654.162 850.257 652.973 850.257H618.378ZM635.676 835.122L618.378 824.311V845.932H652.973V824.311L635.676 835.122ZM635.676 830.797L652.973 819.986H618.378L635.676 830.797ZM618.378 824.311V819.986V845.932V824.311Z" fill="#4051B5"/>
<path d="M943.135 834.257V829.932H982.054V834.257H943.135ZM943.135 823.446V819.122H982.054V823.446H943.135ZM943.135 812.635V808.311H982.054V812.635H943.135Z" fill="#4051B5"/>
<path d="M175.135 496.959L162.162 483.987L175.135 471.014L178.162 474.041L170.378 481.824H196.757V473.176H201.081V486.149H170.378L178.162 493.932L175.135 496.959Z" fill="#4051B5"/>
</g>
</svg>
