<svg width="128" height="128" viewBox="0 0 128 128" fill="none" xmlns="http://www.w3.org/2000/svg">
<g clip-path="url(#clip0_22_98)">
<path d="M24 0L52.6863 28.6863L28.6863 52.6863L0 24V0H24Z" fill="white"/>
<path d="M53.6569 98.3432L65.6569 110.343L54.3431 121.657L36 103.314L23.9817 115.332C23.9938 115.553 24 115.776 24 116C24 122.627 18.6274 128 12 128C5.37258 128 0 122.627 0 116C0 109.373 5.37258 104 12 104C12.2242 104 12.4469 104.006 12.668 104.018L24.6863 92L6.34314 73.6569L17.6569 62.3431L29.6569 74.3431L104 0H128V24L53.6569 98.3432Z" fill="white"/>
<path d="M116 128C109.373 128 104 122.627 104 116C104 115.776 104.006 115.553 104.018 115.332L80.6864 92L110.343 62.3431L121.657 73.6569L103.314 92L115.332 104.018C115.553 104.006 115.776 104 116 104C122.627 104 128 109.373 128 116C128 122.627 122.627 128 116 128Z" fill="white"/>
</g>
<defs>
<clipPath id="clip0_22_98">
<rect width="128" height="128" fill="white"/>
</clipPath>
</defs>
</svg>
